<?xml version="1.0" standalone="no"?>
<!DOCTYPE svg PUBLIC "-//W3C//DTD SVG 1.1//EN" "http://www.w3.org/Graphics/SVG/1.1/DTD/svg11.dtd" >
<svg xmlns="http://www.w3.org/2000/svg">
<metadata>Generated by IcoMoon</metadata>
<defs>
<font id="icomoon" horiz-adv-x="1024">
<font-face units-per-em="1024" ascent="960" descent="-64" />
<missing-glyph horiz-adv-x="1024" />
<glyph unicode="&#x20;" horiz-adv-x="512" d="" />
<glyph unicode="&#xe900;" glyph-name="app" d="M83.413 894.71h379.976v-379.981h-379.976v379.981zM945.115 706.255l-180.197 177.083-177.084-180.186 180.202-177.079 177.079 180.182zM78.884 381.272h379.981v-379.981h-379.981v379.981zM562.908 381.272h379.976v-379.981h-379.976v379.981z" />
<glyph unicode="&#xe901;" glyph-name="arr-l" d="M742.4-64l89.6 92.8-451.2 419.2 451.2 419.2-89.6 92.8-550.4-512z" />
<glyph unicode="&#xe902;" glyph-name="arr-r" d="M278.4-64l-86.4 92.8 451.2 419.2-451.2 419.2 86.4 92.8 553.6-512z" />
<glyph unicode="&#xe903;" glyph-name="backward" d="M961.714 879.429q10.857 10.857 18.286 7.429t7.429-18.286v-841.143q0-14.857-7.429-18.286t-18.286 7.429l-405.714 405.714q-4.571 5.143-7.429 10.857v-405.714q0-14.857-7.429-18.286t-18.286 7.429l-405.714 405.714q-10.857 10.857-10.857 25.714t10.857 25.714l405.714 405.714q10.857 10.857 18.286 7.429t7.429-18.286v-405.714q2.857 6.286 7.429 10.857z" />
<glyph unicode="&#xe904;" glyph-name="broadcast" d="M849.5-2h-675c-66.284 0-112.5 46.216-112.5 112.5v675c0 66.284 46.216 112.5 112.5 112.5h675c66.284 0 112.5-46.216 112.5-112.5v-675c0-66.284-46.216-112.5-112.5-112.5zM99.5 748v-75h150l-72.858 182.135c-46.619-13.532-77.142-53.522-77.142-107.135zM249.5 860.5l75.001-187.5h112.481l-74.982 187.5h-112.5zM436.982 860.5l75.018-187.5h112.5l-75 187.5h-112.519zM624.5 860.5l75-187.5h112.5l-75 187.5h-112.5zM924.5 748c0 66.284-46.216 112.5-112.5 112.5l75.001-187.5h37.499v75zM924.5 635.5h-824.999v-487.5c0-66.284 46.216-112.5 112.5-112.5h600c66.284 0 112.5 46.216 112.5 112.5v487.5zM362 523l337.5-187.5-337.5-187.5v374.999z" />
<glyph unicode="&#xe905;" glyph-name="calendar" d="M256.8 382.944h512.512c17.696 0 32 14.304 32 32s-14.304 32-32 32h-512.512c-17.696 0-32-14.304-32-32s14.336-32 32-32zM256.8 190.944h512.512c17.696 0 32 14.304 32 32s-14.304 32-32 32h-512.512c-17.696 0-32-14.304-32-32s14.336-32 32-32zM448 768h160c17.696 0 32 14.304 32 32s-14.304 32-32 32h-160c-17.696 0-32-14.304-32-32s14.304-32 32-32zM847.008 832h-47.008c-17.696 0-32-14.304-32-32s14.304-32 32-32h47.008c5.984 0 16.992-12.16 16.992-32v-96h-704v96c0 17.664 14.048 32 31.328 32h64.672c17.696 0 32 14.304 32 32s-14.304 32-32 32h-64.672c-52.576 0-95.328-43.072-95.328-96v-640c0-52.928 43.072-96 96-96h640c52.928 0 96 43.072 96 96v640c0 52.928-36.352 96-80.992 96zM864 96c0-17.664-14.368-32-32-32h-640c-17.632 0-32 14.336-32 32v480h704v-480zM704 736c17.696 0 32 14.304 32 32v96c0 17.696-14.304 32-32 32s-32-14.304-32-32v-96c0-17.696 14.304-32 32-32zM352 736c17.696 0 32 14.304 32 32v96c0 17.696-14.304 32-32 32s-32-14.304-32-32v-96c0-17.696 14.304-32 32-32z" />
<glyph unicode="&#xe906;" glyph-name="camera" d="M304 352c0-114.88 93.12-208 208-208s208 93.12 208 208-93.12 208-208 208-208-93.12-208-208zM960 704h-224c-16 64-32 128-96 128h-256c-64 0-80-64-96-128h-224c-35.2 0-64-28.8-64-64v-576c0-35.2 28.8-64 64-64h896c35.2 0 64 28.8 64 64v576c0 35.2-28.8 64-64 64zM512 68c-156.864 0-284 127.136-284 284s127.136 284 284 284c156.864 0 284-127.136 284-284s-127.136-284-284-284zM960 512h-128v64h128v-64z" />
<glyph unicode="&#xe907;" glyph-name="checked" d="M410.757 185.661c-12.148 0-20.245 4.049-28.344 12.148l-242.934 242.934c-16.197 16.196-16.197 40.489 0 56.686 16.196 16.196 40.489 16.196 56.683 0l214.594-214.591 417.036 417.036c16.196 16.196 40.489 16.196 56.686 0 16.193-16.196 16.193-40.49 0-56.683l-445.382-445.383c-8.098-8.097-16.196-12.147-28.34-12.147v0z" />
<glyph unicode="&#xe908;" glyph-name="clock-solid" d="M64 448c0 247.424 200.576 448 448 448s448-200.576 448-448c0-247.36-200.576-448-448-448s-448 200.64-448 448zM726.656 304.96c17.152 25.664 10.176 60.48-15.552 77.696l-143.040 95.36v249.984c-0.064 30.912-25.152 56-56.064 56s-56-25.088-56-56v-280c0-18.688 9.344-36.224 24.96-46.656l168-112c9.536-6.4 20.288-9.344 30.976-9.344 18.112 0 35.904 8.768 46.72 24.96z" />
<glyph unicode="&#xe909;" glyph-name="clock" d="M511.998 775.539c-181.395 0-328.446-147.052-328.446-328.446s147.051-328.446 328.446-328.446 328.448 147.053 328.448 328.446c0 181.393-147.052 328.446-328.448 328.446zM511.998 162.437c-157.21 0-284.653 127.445-284.653 284.654s127.445 284.654 284.653 284.654 284.653-127.445 284.653-284.654c0-157.21-127.444-284.654-284.653-284.654zM654.325 425.195h-142.327v142.328c0 6.051-4.897 10.948-10.948 10.948h-21.896c-6.052 0-10.948-4.898-10.948-10.948v-175.171c0-6.051 4.897-10.947 10.948-10.947h175.172c6.052 0 10.948 4.897 10.948 10.947v21.896c-0.001 6.051-4.898 10.947-10.949 10.947z" />
<glyph unicode="&#xe90a;" glyph-name="close" d="M835.379 723.558l-60.621 63.59-262.758-275.558-262.758 275.558-60.621-63.59 262.758-275.558-262.758-275.558 60.621-63.59 262.758 275.558 262.758-275.558 60.621 63.59-262.758 275.558z" />
<glyph unicode="&#xe90b;" glyph-name="cloud-up" d="M813.976 59.156h-182.834c-75.966 0-136.482 61.803-136.482 136.482v254.938c0 10.301 9.013 19.313 19.313 19.313s19.313-9.013 19.313-19.313v-253.65c0-54.078 43.777-97.855 97.855-97.855h182.834c91.417 0 167.383 68.241 172.534 155.795 2.575 46.352-12.876 91.417-45.065 124.894s-74.679 52.79-122.319 52.79h-3.863c-6.438 0-11.588 2.575-15.451 6.438-3.863 5.15-5.15 10.301-3.863 16.738 7.725 37.339 9.013 75.966 1.288 113.306-21.889 124.894-126.181 220.174-252.363 234.337-81.117 9.013-160.946-16.738-222.749-72.104-60.516-54.078-96.567-131.332-96.567-213.736 0-9.013-6.438-18.026-16.738-19.313-100.43-14.163-173.821-103.005-169.959-206.010 3.863-105.58 97.855-193.135 208.585-193.135h88.842c10.301 0 19.313-9.013 19.313-19.313s-9.013-18.026-20.601-18.026h-88.842c-130.044 0-240.775 103.005-245.925 229.186-5.15 117.168 74.679 218.886 186.697 243.35 5.15 86.267 43.777 167.383 109.443 225.324 69.528 61.803 159.658 91.417 253.65 81.117 142.92-14.163 261.376-123.606 285.839-265.238 6.438-36.052 7.725-70.816 2.575-105.58 50.215-3.863 97.855-27.039 131.332-64.378 39.914-42.49 59.228-96.567 55.365-154.508-6.438-106.868-99.142-191.847-211.161-191.847zM665.906 306.368c-5.15 0-10.301 1.288-14.163 5.15l-139.057 140.345-139.057-139.057c-7.725-7.725-19.313-7.725-27.039 0s-7.725 19.313 0 27.039l153.22 153.22c7.725 7.725 20.601 7.725 27.039 0l153.22-153.22c7.725-7.725 7.725-19.313 0-27.039-3.863-3.863-9.013-6.438-14.163-6.438z" />
<glyph unicode="&#xe90c;" glyph-name="cloud" d="M475.784 188.43v127.056h-79.932l124.071 150.916 123.48-150.323-81.724-0.594 0.598-127.056h190.881c0 0 114.529-1.194 141.969 128.843-1.189 69.792-1.193 55.475-16.701 94.846-22.667 31.615-31.611 47.124-87.092 72.178 9.545 42.35 9.545 106.179-38.771 165.232-48.316 59.057-128.848 67.405-170.604 59.651s-102.001-34.001-134.809-108.563c-23.861 25.649-53.090 44.737-113.934 44.143-26.842-1.194-83.211-24.162-104.384-85.007-6.862-17.3-10.141-46.525-2.386-77.843-19.686-6.264-43.845-22.070-64.127-43.544s-45.039-75.758-31.615-131.234c13.419-55.476 46.525-103.195 128.4-118.704 50.104-0.751 216.68 0 216.68 0v0z" />
<glyph unicode="&#xe90d;" glyph-name="code" d="M362.353 895.774h-298.373v-298.373h298.372v298.373zM302.679 657.077h-179.023v179.023h179.023v-179.023zM63.98 0.659h298.372v298.372h-298.372v-298.372zM123.655 239.356h179.023v-179.023h-179.023v179.023zM243.004 418.379v-59.674h119.349v59.674h-59.674zM660.724 60.333h59.674v-59.674h-59.674v59.674zM481.702 895.774h59.674v-59.674h-59.674v59.674zM63.98 418.379h59.674v-59.674h-59.674v59.674zM899.423 358.705v-59.675h-59.675v-59.674h59.675v-119.349h59.674v298.373h-119.349v-59.674zM839.748 537.728v-59.674h119.349v59.674h-59.674zM780.073 358.705h59.674v-59.674h-59.674v59.674zM780.073 537.728h-59.674v-119.348h-59.674v119.348h-179.023v119.348h-59.674v-119.348h-358.048v-59.674h59.674v-59.674h119.349v59.674h119.348v-59.674h59.674v-238.696h59.674v119.348h59.674v-59.674h59.674v-59.674h59.674v59.674h59.674v-59.674h-59.674v-59.674h59.674v-59.674h119.348v-59.674h59.674v119.348h-119.348v59.674h59.674v59.674h-59.674v59.674h-179.022v59.674h179.022v59.674h59.674v59.674h-59.674v59.674zM601.050 418.379h-59.674v-59.674h-59.674v119.348h119.349v-59.674zM601.050 120.007h59.674v-59.674h-59.674v59.674zM660.724 895.774v-298.373h298.373v298.373h-298.373zM899.423 657.077h-179.023v179.023h179.023v-179.023zM541.376 597.403h59.674v179.023h-119.348v-119.349h59.674zM422.027 836.1h59.674v-59.674h-59.674v59.674zM541.376 120.007v59.675h-59.674v-59.675h-59.675v-119.348h179.023v59.674h-59.674z" />
<glyph unicode="&#xe90e;" glyph-name="countdown" d="M449.536 408c-2.592 0-5.216 0.32-7.808 0.96-128.192 32.224-217.728 146.976-217.728 279.040v112c0 17.664 14.336 32 32 32s32-14.336 32-32v-112c0-102.688 69.632-191.904 169.28-216.96 17.152-4.32 27.552-21.696 23.264-38.816-3.648-14.56-16.704-24.224-31.008-24.224zM574.464 408c-14.304 0-27.328 9.664-31.008 24.192-4.32 17.152 6.080 34.528 23.232 38.816 99.68 25.088 169.312 114.304 169.312 216.992v112c0 17.664 14.304 32 32 32s32-14.336 32-32v-112c0-132.064-89.536-246.816-217.696-279.040-2.624-0.64-5.248-0.96-7.84-0.96zM768 64c-17.696 0-32 14.336-32 32v96c0 102.72-69.632 191.936-169.28 216.96-17.152 4.288-27.552 21.696-23.264 38.816 4.352 17.152 21.952 27.424 38.816 23.232 128.192-32.16 217.728-146.912 217.728-279.008v-96c0-17.664-14.304-32-32-32zM256 64c-17.664 0-32 14.336-32 32v96c0 132.096 89.536 246.848 217.728 279.040 17.184 4.192 34.496-6.080 38.816-23.232s-6.080-34.528-23.264-38.816c-99.68-25.056-169.28-114.272-169.28-216.992v-96c0-17.664-14.336-32-32-32zM864 768h-704c-17.664 0-32 14.336-32 32v128c0 17.664 14.336 32 32 32h704c17.696 0 32-14.336 32-32v-128c0-17.664-14.304-32-32-32zM192 832h640v64h-640v-64zM864-64h-704c-17.664 0-32 14.336-32 32v128c0 17.664 14.336 32 32 32h704c17.696 0 32-14.336 32-32v-128c0-17.664-14.304-32-32-32zM192 0h640v64h-640v-64z" />
<glyph unicode="&#xe90f;" glyph-name="cross" d="M512-59.042c-279.584 0-507.051 227.467-507.051 507.042 0 279.584 227.467 507.042 507.051 507.042 279.575 0 507.042-227.458 507.042-507.042s-227.458-507.042-507.042-507.042zM512 891.664c-244.644 0-443.664-199.020-443.664-443.664 0-244.635 199.029-443.664 443.664-443.664s443.655 199.029 443.655 443.664c0.009 244.644-199.011 443.664-443.655 443.664zM692.859 267.141c-6.186-6.186-14.296-9.284-22.405-9.284s-16.219 3.098-22.405 9.284l-136.049 136.049-136.049-136.049c-6.186-6.186-14.296-9.284-22.405-9.284s-16.219 3.098-22.405 9.284c-12.381 12.372-12.381 32.43 0 44.811l136.040 136.049-136.040 136.049c-12.381 12.372-12.381 32.42 0 44.811 12.381 12.372 32.43 12.372 44.811 0l136.049-136.049 136.049 136.049c12.372 12.372 32.43 12.372 44.802 0 12.381-12.381 12.381-32.43 0-44.811l-136.040-136.049 136.049-136.049c12.381-12.372 12.381-32.43 0-44.811z" />
<glyph unicode="&#xe910;" glyph-name="crown" d="M957.546 636.216c-19.363 19.656-46.193 30.928-73.612 30.928-27.453 0-54.296-11.278-73.639-30.942-19.214-19.528-30.234-46.53-30.234-74.081 0-24.539 8.748-48.639 24.235-67.414l-137.986-116.807-106.678 270.927c13.113 5.281 25.186 13.218 35.256 23.43 19.207 19.545 30.222 46.548 30.222 74.085 0 27.53-11.017 54.528-30.26 74.106-19.375 19.649-46.206 30.917-73.615 30.917-27.425 0-54.258-11.274-73.632-30.943-19.219-19.534-30.241-46.536-30.241-74.081 0-27.554 11.022-54.561 30.255-74.113 10.044-10.196 22.108-18.128 35.22-23.406l-106.675-270.922-137.985 116.809c15.496 18.785 24.249 42.883 24.249 67.412 0 27.54-11.025 54.541-30.249 74.080-19.347 19.665-46.185 30.943-73.632 30.943-27.443 0-54.278-11.278-73.618-30.936-19.229-19.532-30.257-46.536-30.257-74.087s11.027-54.556 30.249-74.082c19.345-19.664 46.181-30.942 73.626-30.942 6.118 0 12.205 0.564 18.186 1.653 15.52-88.217 37.171-211.279 49.14-279.318 3.722-2.489 12.979-50.216 53.575-50.216 54.249 0 167.025 0 273.395 0 12.107 4.487 20.806 16.821 20.807 31.344 0 14.51-8.685 26.837-20.776 31.332h-263.712c-0.824 1.82-1.598 3.695-2.154 5.043-0.312 0.757-0.643 1.556-0.996 2.395l-35.714 203.005 152.136-128.79 118.803 301.727 118.803-301.725 152.132 128.78c-13.083-74.338-27.496-156.238-36.672-208.4-0.332-0.736-0.653-1.413-0.961-2.032h-53.213c-12.254-4.397-21.089-16.81-21.088-31.444 0-14.4 8.55-26.652 20.496-31.232 24.807 0 46.144 0 62.291 0 39.077 0 51.899 46.321 52.858 46.319 0.007 0 0.014-0.004 0.020-0.008 11.81 67.137 34.011 193.288 49.839 283.224 5.983-1.089 12.073-1.653 18.193-1.653 27.421 0 54.251 11.273 73.627 30.943 19.224 19.544 30.25 46.545 30.25 74.081s-11.026 54.536-30.266 74.094zM158.549 519.773c-10.597 0-21.419 4.568-28.952 12.226-7.669 7.79-12.247 19.051-12.247 30.122 0 11.070 4.578 22.329 12.253 30.124 7.529 7.653 18.351 12.222 28.947 12.222 10.6 0 21.425-4.569 28.954-12.223 7.672-7.798 12.251-19.059 12.251-30.124 0-9.625-3.468-19.397-9.417-26.91l-31.788 26.91c0 0 2.799-15.911 7.324-41.627-2.426-0.467-4.88-0.72-7.325-0.72zM492.284 716.197c-7.668 7.795-12.245 19.063-12.245 30.145 0 11.071 4.577 22.333 12.231 30.112 7.547 7.661 18.376 12.236 28.967 12.236 10.588 0 21.425-4.579 28.951-12.212 7.67-7.803 12.249-19.068 12.249-30.135 0-11.077-4.58-22.35-12.212-30.116-3.828-3.882-8.503-6.968-13.559-9.070l-15.429 39.185-15.429-39.188c-5.050 2.098-9.712 5.175-13.523 9.043zM912.895 532.008c-7.546-7.661-18.372-12.236-28.961-12.236-2.446 0-4.901 0.254-7.327 0.721 4.526 25.715 7.327 41.627 7.327 41.627l-31.792-26.913c-5.942 7.506-9.404 17.279-9.404 26.913 0 11.076 4.574 22.338 12.236 30.124 7.528 7.653 18.356 12.222 28.962 12.222 10.586 0 21.413-4.575 28.946-12.222 7.674-7.801 12.255-19.061 12.255-30.125s-4.582-22.326-12.242-30.112zM795.278 90.832h-548.066c0 0-16.12-6.395-16.12-28.677s16.12-26.581 16.12-26.581h548.066c0 0 16.122 7.25 16.122 26.581s-16.122 28.677-16.122 28.677z" />
<glyph unicode="&#xe911;" glyph-name="cup" horiz-adv-x="1025" d="M1023.689 796.931c-0.118 6.478-0.228 12.073-0.228 16.786h-184.764c3.567 79.126 1.383 140.497 1.383 140.497-0.113 3.182-2.811 5.786-5.995 5.786h-320.081c-0.776 0-1.531-0.050-2.287-0.133-0.755 0.084-1.516 0.133-2.287 0.133h-320.911c-3.184 0-5.882-2.603-5.996-5.786 0 0-2.188-61.371 1.381-140.497h-177.582c-3.184 0-5.908 0-6.055 0s-0.266-2.605-0.266-5.789v-35.391c0-3.184 0-5.966 0-6.182s0-2.998 0-6.182v-13.814c0-3.184 0.165-5.789 0.368-5.789v0c1.851-59.648 11.382-139.426 51.048-221.095 33.639-69.272 82.081-127.23 143.992-172.262 51.248-37.29 109.8-64.146 174.178-80.195 37.179-39.676 73.842-61.556 105.841-70.351v-81.424c-4.564-24.191-32.315-106.1-225.747-106.1h-24.459c-3.184 0-5.789-2.605-5.789-5.789v-61.561c0-3.184 2.605-5.789 5.789-5.789h573.558c3.184 0 5.789 2.605 5.789 5.789v61.559c0 3.184-2.605 5.789-5.789 5.789h-24.331c-226.932 0-225.929 106.977-225.929 106.977 0.030 3.184 0.054 8.394 0.054 11.578v68.983c31.994 8.781 67.949 30.573 104.937 70.043 64.845 16.010 123.593 42.973 175.167 80.489 61.893 45.038 110.311 102.995 143.945 172.272 54.13 111.449 52.117 219.436 51.068 277.448zM117.173 551.442c-33.055 68.065-41.708 136.561-43.603 189.126h115.397c1.988-20.373 4.496-40.458 7.677-59.378 19.455-115.906 46.193-218.273 96.805-308.595-77.34 39.176-138.086 100.201-176.276 178.846zM906.824 551.442c-38.415-79.106-99.657-140.397-177.664-179.544 50.779 90.494 77.295 193.080 96.806 309.291 3.175 18.92 5.683 39.005 7.67 59.378h116.796c-1.904-52.564-10.553-121.060-43.608-189.125z" />
<glyph unicode="&#xe912;" glyph-name="detail" d="M886.624 662.624l-191.968 191.968c-2.944 2.944-6.432 5.312-10.336 6.912-3.84 1.632-8.032 2.496-12.32 2.496h-448c-52.928 0-96-43.072-96-96v-640c0-52.928 43.072-96 96-96h576c52.928 0 96 43.072 96 96v512c0 8.48-3.36 16.64-9.376 22.624zM704 754.752l114.752-114.752h-114.752v114.752zM800 96h-576c-17.632 0-32 14.336-32 32v640c0 17.632 14.368 32 32 32h416v-192c0-17.664 14.304-32 32-32h160v-448c0-17.664-14.336-32-32-32zM288 608h192c17.664 0 32 14.336 32 32s-14.336 32-32 32h-192c-17.664 0-32-14.336-32-32s14.336-32 32-32zM608 480h-320c-17.664 0-32-14.336-32-32s14.336-32 32-32h320c17.696 0 32 14.336 32 32s-14.304 32-32 32zM608 288h-320c-17.664 0-32-14.304-32-32s14.336-32 32-32h320c17.696 0 32 14.304 32 32s-14.304 32-32 32z" />
<glyph unicode="&#xe913;" glyph-name="edit" d="M919.84 645.088l-246.816 241.984c-6.080 5.952-14.016 8.928-22.752 9.152-8.512-0.096-16.64-3.552-22.56-9.632l-459.2-470.4c-4.416-4.512-7.392-10.272-8.576-16.448l-61.952-330.656c-1.984-10.592 1.472-21.44 9.216-28.896 6.016-5.856 14.016-8.992 22.24-8.992 2.304 0 4.672 0.256 6.976 0.768l292.448 65.216c6.112 1.344 11.712 4.512 16.064 9.024l475.584 493.824c12.16 12.672 11.872 32.768-0.672 45.056zM433.792 186.912l-122.528 121.472c-12.576 12.48-32.864 12.384-45.248-0.192-12.448-12.576-12.352-32.8 0.192-45.248l112.384-111.392-208.768-46.592 51.264 273.472 430.048 440.48 201.248-197.312-418.592-434.688z" />
<glyph unicode="&#xe914;" glyph-name="emoji" d="M510.944 0c-247.040 0-448 200.96-448 448s200.992 448 448 448c247.008 0 448-200.96 448-448s-200.96-448-448-448zM510.944 832c-211.744 0-384-172.256-384-384s172.256-384 384-384c211.744 0 384 172.256 384 384s-172.256 384-384 384zM512 186.656c-89.184 0-171.904 40.32-226.912 110.624-10.88 13.92-8.448 34.016 5.472 44.896 13.888 10.912 34.016 8.48 44.928-5.472 42.784-54.688 107.136-86.048 176.512-86.048 70.112 0 134.88 31.904 177.664 87.552 10.784 14.016 30.848 16.672 44.864 5.888s16.672-30.88 5.888-44.864c-55.008-71.552-138.272-112.576-228.416-112.576zM368 444.8c-26.528 0-48 21.472-48 48v64c0 26.528 21.472 48 48 48s48-21.472 48-48v-64c0-26.496-21.504-48-48-48zM656 444.8c-26.496 0-48 21.472-48 48v64c0 26.528 21.504 48 48 48s48-21.472 48-48v-64c0-26.496-21.504-48-48-48z" />
<glyph unicode="&#xe915;" glyph-name="empty" d="M970.8 733.858c-2.758 8.749-9.148 15.846-17.57 19.513l-256.036 111.144c-14.358 6.244-31.167 0.998-39.443-12.344l-93.265-150.651c-0.145-0.219-0.199-0.436-0.343-0.69l-215.41-24.94-15.319 35.868c-2.994 7.079-8.477 12.778-15.393 16.109l-218.985 104.738c-11.871 5.664-26.011 3.376-35.504-5.7-9.494-9.111-12.344-23.143-7.17-35.234l70.012-163.956v-421.561c0-10.709 5.427-20.693 14.413-26.537l232.108-150.408c0.128-0.072 0.236-0.072 0.327-0.144 2.269-1.417 4.701-2.505 7.243-3.342 0.544-0.146 1.125-0.325 1.67-0.436 2.614-0.689 5.264-1.16 7.95-1.16 1.217 0 2.414 0.072 3.63 0.218l433.411 50.134c15.958 1.854 27.956 15.356 27.956 31.404v419.635l112.449 182.282c4.83 7.807 6.028 17.319 3.27 26.059zM610.321 650.041l159.356-103.284-159.356-18.406v121.69zM568.553 663.183c1.162-1.234 2.469-2.323 3.848-3.339v-135.886l-151.313-17.535-56.833 133.126 204.298 23.634zM279.992 675.999l58.050-135.921-148.683 96.35c-0.090 1.379-0.145 2.723-0.435 4.066-0.436 2.141-1.089 4.175-1.924 6.099l-39.644 92.82 132.637-63.415zM189.56 591.085l168.922-109.421v-367.795l-168.922 109.457v367.758zM421.686 91.217v374.836c0.581 0.798 1.108 1.634 1.616 2.469l368.593 42.62v-377.123l-370.209-42.802zM806.906 567.812l-179.049 116.027 69.231 111.809 197.51-85.704-87.691-142.132z" />
<glyph unicode="&#xe916;" glyph-name="erke" d="M562.321 828.23c-14.22 1.651-28.665 2.476-43.274 2.476-209.423 0-381.15-172.612-389.202-390.087l17.156 25.301c-47.167-19.57-78.775-67.267-78.775-121.088 0-71.952 55.957-130.289 124.999-130.289 3.462 0 6.9 0.144 10.312 0.435l-2.218 28.317-23.891-13.675c67.937-128.961 197.878-210.852 341.621-210.852 141.92 0 270.473 79.83 339.132 206.21l-23.413-14.409c68.459 0.8 123.603 58.862 123.603 130.288 0 47.579-24.721 90.684-63.779 113.575l13.895-24.407c-1.029 84.965-27.205 165.823-74.196 233.179-8.854 12.69-25.901 15.497-38.075 6.269-12.173-9.228-14.867-26.997-6.013-39.687 40.406-57.918 62.89-127.371 63.774-200.477l0.199-16.378 13.698-8.028c22.056-12.927 35.98-37.207 35.98-64.047 0-40.281-31.094-73.020-69.7-73.471l-15.683-0.183-7.728-14.227c-59.075-108.744-169.615-177.387-291.695-177.387-123.648 0-235.381 70.417-293.837 181.381l-8.503 16.14-17.607-1.498c-1.931-0.164-3.889-0.247-5.878-0.247-38.931 0-70.485 32.895-70.485 73.469 0 30.357 17.829 57.262 44.424 68.295l16.472 6.834 0.684 18.467c6.924 186.997 154.623 335.457 334.73 335.457 12.606 0 25.038-0.71 37.242-2.127 14.962-1.737 28.441 9.498 30.107 25.092 1.665 15.595-9.113 29.644-24.074 31.381v0zM699.794 315.532c-1.626-3.413-3.429-6.914-5.401-10.509-36.896-67.235-105.432-109.573-181.098-109.573-79.773 0-151.43 47.108-186.541 120.172-6.742 14.030-23.118 19.705-36.577 12.679s-18.905-24.097-12.163-38.125c44.262-92.111 134.671-151.547 235.281-151.547 95.417 0 181.908 53.429 228.41 138.174 2.488 4.527 4.794 9.010 6.913 13.461 6.694 14.053 1.192 31.103-12.29 38.081-13.484 6.978-29.841 1.241-36.535-12.813v0zM642.948 837.812c18.981-0.342 37.104-8.148 50.934-22.381 29.188-30.051 29.46-79.101 0.589-109.528-28.846-30.441-75.909-30.73-105.104-0.653-10.707 11.029-27.964 10.925-38.546-0.234s-10.481-29.148 0.224-40.178c50.611-52.141 132.2-51.638 182.195 1.123 50.040 52.734 49.57 137.781-1.055 189.9-23.894 24.589-55.426 38.169-88.294 38.762-15.052 0.271-27.466-12.226-27.725-27.915-0.261-15.686 11.73-28.625 26.782-28.896v0zM716.172 480.63c10.088-10.313 16.348-24.68 16.348-40.567 0-31.374-24.414-56.82-54.513-56.82-30.097 0-54.513 25.447-54.513 56.82s24.414 56.82 54.513 56.82c14.858 0 28.329-6.2 38.164-16.253zM391.356 480.63c10.089-10.313 16.349-24.68 16.349-40.567 0-31.374-24.414-56.82-54.514-56.82-30.099 0-54.513 25.447-54.513 56.82s24.414 56.82 54.513 56.82c14.857 0 28.33-6.2 38.164-16.253z" />
<glyph unicode="&#xe917;" glyph-name="eye" d="M0 411.136q0 19.456 11.264 39.936 79.872 131.072 215.040 209.92t285.696 79.872 285.696-79.872 215.040-209.92q11.264-20.48 11.264-39.936t-11.264-38.912q-79.872-132.096-215.040-210.944t-285.696-78.848-285.696 78.848-215.040 210.944q-11.264 19.456-11.264 38.912zM72.704 411.136q76.8-116.736 191.488-186.368t247.808-69.632 247.808 69.632 191.488 186.368q-87.040 135.168-218.112 201.728 34.816-59.392 34.816-128 0-106.496-74.752-181.248t-181.248-74.752-181.248 74.752-74.752 181.248q0 68.608 34.816 128-131.072-66.56-218.112-201.728zM337.92 484.864q0-11.264 8.192-19.456t19.456-8.192 19.456 8.192 8.192 19.456q0 49.152 34.816 83.968t83.968 34.816q11.264 0 19.456 8.192t8.192 19.456-8.192 19.456-19.456 7.168q-71.68 0-122.88-51.2t-51.2-121.856z" />
<glyph unicode="&#xe918;" glyph-name="film" d="M832.666 236.518c0 0-18.797-61.402-64.826-56.416-18.163 1.965-34.022 16.678-50.118 33.747 44.166 54.56 70.669 124.019 70.669 199.68 0 175.443-142.208 317.651-317.632 317.651-175.443 0-317.67-142.208-317.67-317.651 0-175.424 142.227-317.651 317.67-317.651 75.206 0 144.256 26.195 198.662 69.882 24.57-17.933 41.683-46.733 105.229-48.493 89.6-2.496 101.747 77.056 101.747 77.056l-43.731 42.195zM472.365 668.755c47.418 0 85.824-38.432 85.824-85.824 0-47.411-38.406-85.824-85.824-85.824-47.411 0-85.818 38.413-85.818 85.824 0 47.386 38.406 85.824 85.818 85.824zM503.437 413.658c0-18.067-14.643-32.723-32.717-32.723-18.080 0-32.723 14.656-32.723 32.723s14.643 32.717 32.723 32.717c18.074 0 32.717-14.65 32.717-32.717zM302.906 327.334c-47.405 0-85.824 38.419-85.824 85.824 0 47.392 38.419 85.83 85.824 85.83 47.411 0 85.83-38.432 85.83-85.83 0-47.411-38.419-85.824-85.83-85.824zM472.365 158.323c-47.411 0-85.818 38.426-85.818 85.83 0 47.386 38.406 85.818 85.818 85.818 47.418 0 85.824-38.432 85.824-85.818 0-47.405-38.406-85.83-85.824-85.83zM640.922 327.334c-47.398 0-85.824 38.419-85.824 85.824 0 47.392 38.426 85.83 85.824 85.83 47.411 0 85.83-38.432 85.83-85.83 0-47.411-38.419-85.824-85.83-85.824z" />
<glyph unicode="&#xe919;" glyph-name="fire" d="M761.87 376.662c-86.128 186.577-30.552 246.404-29.981 247.052 0.949 0.949 1.089 2.49 0.351 3.681-0.787 1.143-2.274 1.6-3.574 1.058-1.24-0.487-121.119-50.425-106.030-161.14-32.907 29.549-186.506 181.186-92.518 359.523 0.567 1.084 0.402 2.44-0.467 3.363-0.808 0.945-2.193 1.24-3.278 0.733-2.055-0.822-49.969-21.322-88.156-73.073-35.237-47.665-68.033-131.976-23.884-262.432 16.059-61.372-14.22-111.145-30.472-132.272 4.010 14.571 9.019 39.242 8.177 67.541-1.292 41.436-16.244 98.692-80.112 135.736-0.973 0.572-2.248 0.522-3.197-0.186-1-0.732-1.406-1.897-1.113-3.086 0.19-1.084 24.107-110.096-17.816-160.522-36.189-43.549-71.638-119.274-52.462-189.449 16.087-58.662 66.321-103.448 149.338-133.061 21.287-6.551 41.681-11.532 64.192-15.736 1.461-0.326 2.897 0.567 3.354 1.952 0.406 1.511-0.271 3.053-1.626 3.658-42.651 18.488-86.611 56.981-53.953 135.195 31.125 67.41 25.572 102.152 19.314 117.057 16.087-9.049 48.021-32.585 40.059-73.911-0.216-1.22 0.326-2.489 1.381-3.082 1.088-0.653 2.413-0.568 3.357 0.216 1.028 0.788 97.066 79.814 53.407 176.655 21.512-12.429 78.578-55.816 44.909-155.398-11.213-42.846 19.31-73.615 20.584-74.94 1.028-0.973 2.545-1.165 3.73-0.351 1.144 0.704 1.601 2.198 1.089 3.515-1.004 2.685-23.73 63.977 25.624 97.829-2.63-15.74-6.775-54.649 10.913-75.884 15.867-19.119 31.202-50.435 26.51-81.034-3.274-21.508-16.008-39.645-37.946-53.869-1.245-0.884-1.699-2.409-1.050-3.789 0.598-1.38 2.193-1.982 3.603-1.541 54.19 17.951 125.265 53.538 156.254 121.461 22.959 50.132 20.063 110.145-8.513 178.53v0 0 0z" />
<glyph unicode="&#xe91a;" glyph-name="flag-solid" d="M62.967 919.889c34.822 0 62.966-26.418 62.966-58.971v-884.546h-125.933v884.546c0 32.553 28.211 58.971 62.967 58.971v0zM755.868 761.107c75.314 0 142.801 38.347 188.967 67.398v-548.855c-46.166-29.119-113.653-67.399-188.967-67.399-75.318 0-142.805 20.963-188.971 49.875-46.227 28.979-113.713 49.87-188.965 49.87-75.314 0-142.806-35.854-188.967-64.9v548.924c46.161 29.045 113.653 64.898 188.967 64.898 75.318 0 142.806-20.891 188.965-49.87 46.166-29.045 113.653-49.941 188.971-49.941v0z" />
<glyph unicode="&#xe91b;" glyph-name="flag" d="M1010.666 674.95c0 12.288-9.951 22.261-22.261 22.261h-222.609c-24.598 0-44.522 19.946-44.522 44.522 0 49.174-39.869 89.043-89.043 89.043h-489.739l-0.045 67.005c-0.134 12.177-9.995 22.038-22.216 22.038s-22.083-9.862-22.216-22.038l-0.045-912.918h-44.522c-12.31 0-22.261-9.973-22.261-22.261s9.951-22.261 22.261-22.261h133.565c12.31 0 22.261 9.973 22.261 22.261s-9.951 22.261-22.261 22.261h-44.522v200.348h489.739c24.576 0 44.522-19.923 44.522-44.522v0 0c0.646-48.595 40.292-89.043 89.043-89.043h222.609c12.31 0 22.261 9.973 22.261 22.261 0 1.803 0 600.888 0 601.043zM632.186 229.955h-489.739v556.522h489.739c24.576 0 44.522-19.946 44.522-44.522v-524.355c-13.156 7.658-28.227 12.355-44.522 12.355zM721.23 140.911v524.333c13.134-7.658 28.227-12.355 44.522-12.355h200.348v-556.522h-200.348c-24.598 0.022-44.522 19.946-44.522 44.544z" />
<glyph unicode="&#xe91c;" glyph-name="forward" d="M99.403 16.73c-14.275-14.285-25.695-9.138-25.695 10.847v840.573c0 19.985 11.42 25.122 25.695 10.847l405.444-405.444c2.855-2.855 5.71-6.846 7.419-10.847v405.444c0 19.985 11.42 25.122 25.694 10.847l405.445-405.444c14.274-14.275 14.274-37.116 0-51.39l-405.445-405.434c-14.274-14.285-25.694-9.138-25.694 10.847v405.434c-1.709-3.991-4.564-7.419-7.419-10.847l-405.444-405.433z" />
<glyph unicode="&#xe91d;" glyph-name="gift" d="M594.285 163.828v409.161h-182.857v-409.161q0-14.299 10.277-22.016t26.295-7.717h109.714q16.018 0 26.295 7.717t10.277 22.016zM333.714 646.096h111.433l-72.009 92.014q-14.848 17.701-39.424 17.701-22.857 0-38.839-16.018t-16.018-38.839 16.018-38.839 38.839-16.018zM726.856 700.953q0 22.857-16.018 38.839t-38.839 16.018q-24.576 0-39.424-17.701l-71.424-92.014h110.848q22.857 0 38.839 16.018t16.018 38.839zM941.714 554.667v-182.857q0-8.009-5.157-13.129t-13.129-5.157h-54.857v-237.714q0-22.857-16.018-38.839t-38.839-16.018h-621.714q-22.857 0-38.839 16.018t-16.018 38.839v237.714h-54.857q-8.009 0-13.129 5.157t-5.157 13.129v182.857q0 8.009 5.157 13.129t13.129 5.157h251.429q-53.138 0-90.587 37.413t-37.413 90.587 37.413 90.587 90.587 37.413q61.147 0 96-43.995l73.143-94.281 73.143 94.281q34.853 43.995 96 43.995 53.138 0 90.587-37.413t37.413-90.587-37.413-90.587-90.587-37.413h251.429q8.009 0 13.129-5.157t5.157-13.129z" />
<glyph unicode="&#xe91e;" glyph-name="gps" d="M525.609-47.642c-3.99-3.149-8.798-4.731-13.609-4.731s-9.616 1.582-13.609 4.731c-14.776 11.627-361.864 332.791-361.864 620.697 0 206.959 168.447 375.318 375.473 375.318 207.028 0 375.473-168.359 375.473-375.318 0-287.904-347.089-609.070-361.864-620.697zM512 748.361c-96.766 0-175.21-78.444-175.21-175.21 0-96.764 78.444-175.207 175.21-175.207s175.21 78.445 175.21 175.207c-0.001 96.766-78.445 175.21-175.21 175.21z" />
<glyph unicode="&#xe91f;" glyph-name="hospital" d="M711.676-26.142h-370.574c-7.201 0-13.035 5.834-13.035 13.035v262.785h-262.779c-7.201 0-13.035 5.834-13.035 13.035v370.574c0 7.201 5.834 13.035 13.035 13.035h262.779v262.785c0 7.201 5.834 13.035 13.035 13.035h370.574c7.201 0 13.035-5.834 13.035-13.035v-262.785h262.785c7.201 0 13.035-5.834 13.035-13.035v-370.574c0-7.201-5.834-13.035-13.035-13.035h-262.785v-262.785c0-7.195-5.834-13.035-13.035-13.035zM354.137-0.072h344.504v262.785c0 7.201 5.834 13.035 13.035 13.035h262.785v344.504h-262.785c-7.201 0-13.035 5.834-13.035 13.035v262.785h-344.504v-262.785c0-7.201-5.834-13.035-13.035-13.035h-262.779v-344.504h262.785c7.201 0 13.035-5.834 13.035-13.035v-262.785z" />
<glyph unicode="&#xe920;" glyph-name="hot" d="M809.82 682.711c-9.032 6.518-20.69 8.079-31.119 4.26-10.429-3.86-18.284-12.641-20.982-23.46-6.62-26.578-21.335-45.148-36.71-57.902 2.852 198.692-205.532 314.691-327.649 350.31-12.498 3.666-25.933-0.261-34.524-10.076-8.596-9.81-10.793-23.7-5.627-35.686 0.548-1.295 53.827-130.657-98.657-264.453-179.492-157.471-204.672-236.795-189.215-395.213 19.323-198.124 246.446-308.173 357.719-309.181h0.302c13.271 0 25.298 7.905 30.674 20.106 5.407 12.314 2.995 26.711-6.118 36.588-0.937 1.009-94.275 103.68-77.844 218.757 7.788 54.564 39.281 104.535 93.824 149.115 3.825-41.242 20.511-93.583 69.427-145.382 81.362-86.17 93.588-117.796 26.619-230.651-6.323-10.644-6.303-23.946 0.051-34.591 6.083-10.184 17.019-16.374 28.759-16.374 0.532 0 1.070 0.026 1.618 0.046 3.169 0.154 317.373 18.785 366.525 329.175 43.382 273.946-139.274 409.016-147.072 414.612zM890.619 278.666c-28.365-179.139-160.773-240.701-241.162-261.709 44.401 104.207 13.338 164.367-67.451 249.923-73.39 77.722-48.005 152.806-46.996 155.633 5.053 13.435 1.101 28.58-9.841 37.796-6.185 5.197-13.839 7.854-21.55 7.854-5.919 0-11.863-1.582-17.193-4.762-108.298-64.968-169.815-144.922-182.856-237.635-11.141-79.299 15.99-151.132 44.14-201.329-92.81 33.295-204.344 117.422-215.583 232.627-12.759 130.811-2.176 189.804 166.584 337.843 118.84 104.279 135.332 209.823 130.447 275.604 30.879-13.476 70.738-33.777 108.278-61.522 95.903-70.871 132.874-156.273 109.916-253.783-2.678-11.325 0.655-23.224 8.806-31.493 8.156-8.233 19.932-11.766 31.258-9.155 3.651 0.835 75.325 17.93 115.236 83.712 43.935-47.667 114.355-152.909 87.967-319.606z" />
<glyph unicode="&#xe921;" glyph-name="info" d="M512.006-59.903c-0.043 0-0.084 0-0.127 0-68.691 0.016-135.341 13.491-198.098 40.053-60.6 25.648-115.016 62.352-161.734 109.092s-83.397 101.172-109.016 161.786c-26.532 62.768-39.977 129.424-39.96 198.116s13.492 135.34 40.054 198.098c25.649 60.6 62.353 115.016 109.093 161.734 46.74 46.719 101.173 83.398 161.785 109.017 62.727 26.513 129.347 39.96 197.989 39.96 0.046 0 0.081 0 0.127 0 68.691-0.016 135.34-13.492 198.097-40.054 60.6-25.649 115.015-62.353 161.733-109.094s83.397-101.172 109.017-161.786c26.531-62.769 39.975-129.425 39.959-198.116-0.023-95.492-26.654-188.573-77.015-269.181l-52.106 32.554c44.257 70.839 67.661 152.668 67.681 236.642 0.015 60.423-11.799 119.027-35.112 174.18-22.524 53.289-54.782 101.156-95.879 142.271-41.096 41.117-88.948 73.397-142.225 95.947-55.142 23.34-113.74 35.182-174.163 35.196-0.037 0-0.075 0-0.112 0-60.385 0-118.95-11.813-174.070-35.112-53.288-22.524-101.155-54.783-142.271-95.879-41.117-41.097-73.397-88.949-95.947-142.226-23.339-55.144-35.18-113.742-35.194-174.166s11.799-119.027 35.112-174.18c22.524-53.289 54.783-101.155 95.879-142.273 41.096-41.116 88.949-73.396 142.226-95.945 55.143-23.339 113.741-35.18 174.165-35.194 0.035 0 0.078 0 0.112 0 51.146 0 101.281 8.548 149.033 25.409 46.186 16.309 89.197 40.031 127.837 70.506l38.048-48.241c-43.943-34.659-92.872-61.642-145.428-80.2-54.335-19.187-111.361-28.915-169.489-28.915zM551 554.577h51.6l-49.2-248.001c-2.669-13.337-4.669-26-6-38-1.338-12-2-22.537-2-31.6 0-11.737 3.131-20.868 9.4-27.4 6.262-6.537 15.131-9.8 26.6-9.8 6.4 0 14.8 0.932 25.2 2.8 10.4 1.863 23.6 4.801 39.6 8.8v-39.999c-38.138-12.8-69.8-22-95-27.6s-47.138-8.4-65.8-8.4c-27.469 0-47.869 5.8-61.2 17.4-13.338 11.6-20 29.263-20 53 0 6.132 0.931 15.332 2.8 27.6 1.863 12.263 4.531 26.532 7.999 42.8l41.6 197.201-70.4 9.2v37.6l164.799 34.398zM567.4 752.176c22.131 0 39.131-5.27 51-15.8 11.862-10.538 17.8-25.8 17.8-45.8 0-22.669-7.938-41.4-23.8-56.2-15.869-14.8-35.8-22.2-59.8-22.2-21.069 0-37.938 5.531-50.6 16.6-12.669 11.062-19 25.662-19 43.8 0 22.662 8.062 41.6 24.2 56.8 16.129 15.201 36.198 22.801 60.199 22.801z" />
<glyph unicode="&#xe922;" glyph-name="is-share" d="M687.905 557.87c-41.664 0-78.856 18.061-105.068 46.454l-159.724-91.259c3.95-13.161 6.72-26.798 6.72-41.219 0-23.355-6.103-45.082-16.015-64.576l153.505-87.757c25.485 39.793 69.839 66.307 120.581 66.307 79.194 0 143.373-64.179 143.373-143.37 0-79.194-64.179-143.373-143.373-143.373s-143.373 64.179-143.373 143.373c0 5.292 1.009 10.332 1.567 15.485l-173.614 99.213 0.558 1.093c-24.136-18.401-53.875-29.768-86.582-29.768-79.194 0-143.373 64.179-143.373 143.373 0 79.191 64.182 143.37 143.373 143.37 41.667 0 78.853-18.089 105.065-46.454l159.726 91.259c-3.948 13.133-6.72 26.798-6.72 41.219 0 79.191 64.179 143.373 143.373 143.373s143.373-64.182 143.373-143.373c0-79.188-64.182-143.37-143.373-143.37zM687.905 156.426c47.493 0 86.026 38.505 86.026 86.026 0 47.519-38.533 86.024-86.026 86.024s-86.024-38.505-86.024-86.024c0-47.519 38.531-86.026 86.024-86.026zM286.464 557.87c-47.493 0-86.024-38.533-86.024-86.024 0-47.521 38.531-86.026 86.024-86.026 47.491 0 86.024 38.502 86.024 86.026-0.003 47.493-38.533 86.024-86.024 86.024zM687.905 787.267c-47.493 0-86.024-38.505-86.024-86.024s38.531-86.024 86.024-86.024 86.026 38.505 86.026 86.024-38.533 86.024-86.026 86.024z" />
<glyph unicode="&#xe923;" glyph-name="is-zan" d="M91.040 53.64l-56.259 450.11c0 62.169 22.25 112.554 84.395 112.554h310.239c-7.54 30.129-14.718 58.795-19.775 78.94-49.119 195.322 109.459 268.997 159.677 258.673 50.495-10.412 78.118-34.070 109.798-106.907 20.198-46.36 69.769-186.707 104.932-287.981 3.435 0.339 6.779 1.008 10.299 1.008h196.922v-618.901h-196.924c-0.229 0-0.452 0.031-0.675 0.031h-139.533c-0.17 0-0.314-0.031-0.453-0.031h-450.108c-62.146 0.001-112.532 50.388-112.532 112.502v0zM822.473 503.779c-6.416 0-23.434 1.124-29.198-0.815 0.248-0.706-0.254 0.7 0 0l1.067-4.787v-500.749h28.13v-0.054l112.527 0.054v506.375l-0.816-0.025h-111.71zM147.307 560.039c-31.056 0-56.265-25.178-56.235-56.259l56.265-450.115c0-31.083 25.201-56.29 56.259-56.29l534.512 0.054v534.512c0 1.093 0.507 2.021 0.615 3.090-33.955 94.694-98.544 273.724-113.172 306.332-22.365 49.849-68.248 58.089-84.397 56.29-23.070-2.59-107.974-65.013-84.395-168.792l42.195-168.822h-351.648z" />
<glyph unicode="&#xe924;" glyph-name="knowledge" d="M676.125 832.2h-400.488c-33.776 0-62.726-28.95-62.726-62.726v-487.34c0-33.776 28.95-62.725 62.726-62.725h400.488c33.775 0 62.725 28.949 62.725 62.725v487.339c0.001 33.776-28.949 62.727-62.725 62.727v0zM618.221 499.264h-110.977v-120.628c0-19.302-14.475-33.776-33.776-33.776s-33.775 14.475-33.775 33.776v120.628h-120.628c-19.302 0-33.776 14.475-33.776 33.776s14.475 33.775 33.776 33.775h125.455v106.155c0 14.475 14.475 28.953 33.776 28.953 14.475 0 28.949-14.479 28.949-28.953v-110.977h110.977c19.302 0 33.779-14.475 33.779-33.776 0-14.479-14.479-28.953-33.78-28.953v0zM714.726 137.377h-400.487c-9.65 0-19.302 9.652-19.302 19.301v4.826c0 9.65 9.652 19.302 19.302 19.302h400.487c9.65 0 19.302-9.652 19.302-19.302v-4.826c0-9.648-9.652-19.301-19.302-19.301v0zM796.754 759.822c-9.65 0-19.302-9.649-19.302-24.123v-598.32c0-24.123-19.301-38.598-38.602-38.598h-448.735c-19.302 0-38.602 19.296-38.602 38.598v43.428c0 24.122 19.301 38.602 38.602 38.602h337.759v120.628h-357.060c-33.775 0-57.903-24.128-57.903-57.904v-164.056c0-33.776 24.128-57.899 57.903-57.899h487.338c33.775 0 57.903 24.122 57.903 57.899v617.623c-0.001 9.648-9.649 24.122-19.301 24.122v0z" />
<glyph unicode="&#xe925;" glyph-name="like-solid" d="M864.32 576h-189.344c13.792 32 29.568 114.688 20.32 189.824-7.328 59.936-42.304 106.080-93.6 123.456-38.048 12.896-78.304 6.72-99.968-15.424-25.792-26.272-37.92-75.84-50.72-128.288-8.384-34.368-17.088-69.856-27.84-88.16-31.2-53.056-96.672-81.408-109.472-81.408h-89.696c-17.664 0-32-14.432-32-32.096v-447.936c0-17.696 14.336-31.968 32-31.968h86.592c26.752 0 126.432-64 241.76-64h215.936c35.552 0 96.768 13.76 119.712 51.68 23.136 38.464 71.936 388.672 71.936 427.488 0 53.632-52.32 96.832-95.616 96.832zM96 575.904c-17.664 0-32-14.336-32-32v-447.936c0-17.696 14.336-32 32-32s32 14.304 32 32v447.936c0 17.664-14.336 32-32 32z" />
<glyph unicode="&#xe926;" glyph-name="like" d="M96 64c-17.664 0-32 14.304-32 32v448c0 17.664 14.336 32 32 32s32-14.336 32-32v-448c0-17.696-14.336-32-32-32zM864.32 576h-189.376c13.792 32 29.6 114.72 20.352 189.952-7.328 60.032-42.368 106.080-93.728 123.456-38.080 12.896-78.208 6.624-99.84-15.456-25.792-26.304-37.888-75.904-50.688-128.352-8.384-34.336-17.056-69.888-27.84-88.16-31.104-52.896-96.256-77.024-109.376-81.44h-89.824c-17.664 0-32-14.336-32-32v-448c0-17.696 14.336-32 32-32h86.592c26.752-14.496 126.4-64 241.76-64h215.936c35.552 0 96.8 13.76 119.712 51.712 23.136 38.464 71.936 388.672 71.936 427.488 0 53.472-52.32 96.8-95.616 96.8zM833.152 84.704c-4.8-8-36.48-20.704-64.864-20.704h-215.936c-114.336 0-215.168 64-216.16 64 0 0-0.032 0-0.032 0-4.8 0-10.112 0-16.128 0h-64.032v384h64c2.624 0 4.96 0.896 7.392 1.504 0.512 0.128 0.992-0.032 1.504 0.128 0.224 0.064 0.864 0.256 1.696 0.512 0.832 0.288 1.728 0.448 2.528 0.832 19.456 6.432 102.528 37.344 145.216 110.016 15.52 26.4 24.928 64.8 34.848 105.408 9.248 37.856 20.736 84.928 34.112 98.592 3.072 2.624 18.016 5.952 36.8-1.44 15.328-6.048 41.952-23.136 47.648-69.664 12.608-102.496-31.392-200.096-31.84-201.088-4.576-9.92-3.744-21.152 2.144-30.336 5.888-9.152 16-14.432 26.912-14.432h235.328c8.672 0 31.616-15.040 31.616-32.768 0.032-42.688-49.376-364.256-62.752-394.56z" />
<glyph unicode="&#xe927;" glyph-name="list" d="M192 736c0-35.36-28.64-64-64-64h-64c-35.36 0-64 28.64-64 64v64c0 35.36 28.64 64 64 64h64c35.36 0 64-28.64 64-64v-64zM192 416c0-35.328-28.64-64-64-64h-64c-35.36 0-64 28.672-64 64v64c0 35.36 28.64 64 64 64h64c35.36 0 64-28.64 64-64v-64zM192 96c0-35.328-28.64-64-64-64h-64c-35.36 0-64 28.672-64 64v64c0 35.36 28.64 64 64 64h64c35.36 0 64-28.64 64-64v-64zM1024 736c0-35.36-28.64-64-64-64h-576c-35.36 0-64 28.64-64 64v64c0 35.36 28.64 64 64 64h576c35.36 0 64-28.64 64-64v-64zM1024 416c0-35.328-28.64-64-64-64h-576c-35.36 0-64 28.672-64 64v64c0 35.36 28.64 64 64 64h576c35.36 0 64-28.64 64-64v-64zM1024 96c0-35.328-28.64-64-64-64h-576c-35.36 0-64 28.672-64 64v64c0 35.36 28.64 64 64 64h576c35.36 0 64-28.64 64-64v-64z" />
<glyph unicode="&#xe928;" glyph-name="lock" d="M512 174.933c-18.842 0-34.133 15.258-34.133 34.133v102.4c0 18.876 15.292 34.133 34.133 34.133s34.133-15.258 34.133-34.133v-102.4c0-18.876-15.292-34.133-34.133-34.133zM853.333-29.867h-682.667c-56.457 0-102.4 45.943-102.4 102.4v375.467c0 56.457 45.943 102.4 102.4 102.4h682.667c56.457 0 102.4-45.943 102.4-102.4v-375.467c0-56.457-45.943-102.4-102.4-102.4zM170.667 482.133c-18.807 0-34.133-15.326-34.133-34.133v-375.467c0-18.842 15.326-34.133 34.133-34.133h682.667c18.842 0 34.133 15.292 34.133 34.133v375.467c0 18.807-15.292 34.133-34.133 34.133h-682.667zM750.933 482.133c-18.876 0-34.133 15.292-34.133 34.133v138.65c0 116.019-109.056 202.684-206.575 202.684-99.806 0-203.025-75.639-203.025-202.206v-139.127c0-18.842-15.292-34.133-34.133-34.133s-34.133 15.292-34.133 34.133v139.127c0 169.301 137.933 270.473 271.292 270.473 130.014 0 274.842-111.275 274.842-270.95v-138.65c0-18.842-15.258-34.133-34.133-34.133z" />
<glyph unicode="&#xe929;" glyph-name="logo" d="M506.636 355.857c1.479 0.437 2.948 0.917 4.565 0.924-1.616-0.012-3.161-0.33-4.565-0.924zM379.677 651.904c0-0.915 0.067-1.823 0.197-2.713l29.911 17.022c-3.225 2.639-7.308 4.137-11.67 4.137-10.166 0.001-18.439-8.274-18.439-18.446zM883.086 678.343l-359.724 207.686c-7.547 4.357-16.846 4.357-24.393 0l-359.723-207.686c-7.547-4.357-12.196-12.41-12.196-21.124v-415.372c0-8.714 4.649-16.767 12.196-21.124l359.723-207.686c7.547-4.357 16.846-4.357 24.393 0l359.723 207.686c7.547 4.357 12.196 12.41 12.196 21.124v415.372c0.001 8.714-4.648 16.767-12.195 21.124zM782.539 357.393c0-11.968-9.738-21.705-21.709-21.705-11.968 0-21.705 9.738-21.705 21.705v120.465c0 11.97 9.738 21.707 21.705 21.707 11.972 0 21.709-9.738 21.709-21.707v-120.465zM780.557 529.656c-4.359-14.945-17.323-22.279-25.069-26.66l-207.57-118.075c-21.505-12.224-49.466-12.206-70.904 0l-95.024 54.058c-5.038 2.863-8.661 7.52-10.197 13.116-1.534 5.59-0.8 11.446 2.068 16.486 5.87 10.378 19.138 14.042 29.578 8.147l95.044-54.070c8.627-4.912 19.343-4.917 27.979 0.005l206.637 117.542c1.338 0.755 4.331 2.447 6.179 3.683 0 1.367-0.767 2.752-3.83 3.97-0.886 0.346-2.015 0.877-2.858 1.358l-206.637 117.547c-8.457 4.802-18.971 4.806-27.427 0l-207.359-117.913c-1.448-0.676-4.35-2.196-5.416-3.954 1.798-1.834 3.859-3.428 6.079-4.688l48.974-27.858c6.496-3.685 10.636-10.565 10.915-18.071 0.095-0.767 0.15-1.422 0.15-2.096v-179.711c0-4.831 2.608-9.314 6.806-11.695l123.233-70.104c2.782-1.582 5.693-2.935 8.704-4.059v118.125c0 11.972 9.738 21.71 21.705 21.71s21.705-9.738 21.705-21.71v-118.125c3.016 1.125 5.922 2.477 8.708 4.059l123.233 70.099c4.192 2.386 6.799 6.869 6.799 11.7v125.782c0 11.97 9.738 21.707 21.71 21.707 11.968 0 21.705-9.738 21.705-21.707v-125.782c0-20.405-11.015-39.342-28.747-49.432l-123.242-70.099c-15.703-8.932-33.639-13.654-51.871-13.654-18.237 0-36.174 4.722-51.871 13.654l-123.233 70.099c-17.737 10.086-28.756 29.027-28.756 49.432v168.337l-38.086 21.657c-9.392 5.346-17.544 12.863-23.571 21.745-1.058 1.539-1.925 3.261-2.556 5.074-4.697 13.552-4.984 43.101 27.391 58.312l69.743 39.687c-3.364 7.73-5.114 16.086-5.114 24.619 0 34.109 27.746 61.859 61.852 61.859 20.231 0 38.67-9.614 50.176-25.64l28.768 16.37c21.7 12.353 48.66 12.351 70.351-0.002l28.675-16.309c11.51 15.99 29.933 25.583 50.123 25.583 34.111 0 61.862-27.751 61.862-61.859 0-8.492-1.739-16.817-5.084-24.531l69.794-39.704c19.869-8.407 35.681-30.873 27.777-58.013zM614.609 666.265l29.861-16.984c0.124 0.863 0.186 1.739 0.186 2.623 0 10.172-8.275 18.446-18.446 18.446-4.327 0.001-8.381-1.479-11.601-4.085z" />
<glyph unicode="&#xe92a;" glyph-name="mazui" d="M701.271 824.312l-47.050-47.916c-3.177-3.226-5.103-7.66-5.065-12.545 0.043-4.881 2.061-9.28 5.281-12.452l22.967-22.569-16.321-16.673-30.075 29.782c-3.554 3.514-8.454 5.671-13.834 5.621-5.405-0.046-10.256-2.28-13.754-5.858l-19.863-20.35c-9.867-9.959-15.555-21.174-17.209-33.647-1.66-12.47 1.191-22.657 8.682-30.513l1.358-1.17-239.209-244.266c-4.745-4.853-7.657-11.505-7.633-18.826 0.037-7.324 3.017-13.954 7.806-18.758l17.179-17.209-18.919-19.32c-10.286-10.397-17.018-21.769-20.041-34.442-2.944-12.672-1.857-23.244 3.338-31.691l-181.238-186.517 18.203-18.477 181.312 186.906c8.49-5.1 18.999-6.007 31.456-2.78 12.563 3.264 23.849 10.083 33.925 20.569l18.9 19.31 16.574-16.216c5.047-4.929 11.964-7.944 19.579-7.864 7.608 0.080 14.451 3.243 19.388 8.274l238.438 243.467 1.302-1.3c8.201-7.256 18.357-9.971 30.624-8.129 12.248 1.839 23.183 7.723 33.049 17.691l17.005 17.425c4.246 4.344 6.831 10.299 6.775 16.846-0.044 6.553-2.747 12.455-7.059 16.728l-27.076 26.798 16.345 16.682 21.505-21.303c3.591-3.554 8.539-5.726 13.981-5.687 5.455 0.040 10.361 2.292 13.896 5.899l42.582 43.465c4.048 4.134 6.529 9.81 6.48 16.062-0.037 6.244-2.61 11.89-6.732 15.959l-150.678 149.179c-3.369 3.335-8.016 5.381-13.124 5.344-5.116-0.035-9.738-2.148-13.051-5.529zM497.406 360.874l-55.831 55.256 9.582 9.907 55.818-55.25-9.57-9.913zM536.464 401.047l-55.053 55.377 8.541 7.975 55.805-55.256-9.293-8.095zM771.768 554.46l-9.62-9.922c-3.407-3.387-7.176-5.439-11.329-6.071-4.3-0.642-7.503 0.372-9.78 2.897l-19.913 19.724-116.725-119.341-101.929 101.936 116.344 118.71-19.819 19.61c-2.653 2.344-3.586 5.578-3.005 9.781 0.556 4.192 2.438 8.098 5.843 11.487l9.552 9.545 160.383-158.355zM719.344 784.386l124.315-123.483c2.043-2.018 3.307-4.813 3.326-7.898 0.025-3.091-1.203-5.899-3.209-7.945l-4.831-4.936c-2.875-2.937-6.881-4.779-11.329-4.816-4.436-0.037-8.478 1.743-11.403 4.641l-24.119 23.871-40.306-41.484-72.169 71.772 40.372 41.116-27.169 26.687c-2.159 2.12-3.511 5.057-3.548 8.324-0.031 3.261 1.246 6.235 3.363 8.398l5.442 5.584c2.696 2.755 6.436 4.48 10.595 4.511 4.159 0.033 7.93-1.624 10.669-4.341z" />
<glyph unicode="&#xe92b;" glyph-name="message" d="M511.999 71.917c-16.261 0-31.352 8.102-40.386 21.663l-78.945 118.755h-266.976c-33.635 0-60.996 27.441-60.996 61.175v489.398c0 33.734 27.361 61.175 60.996 61.175h772.616c33.635 0 60.995-27.441 60.995-61.175v-489.398c0-33.734-27.36-61.175-60.995-61.175h-266.977l-78.966-118.755c-9.014-13.562-24.104-21.663-40.367-21.663zM125.693 783.298c-11.22 0-20.332-9.151-20.332-20.391v-489.397c0-11.257 9.113-20.391 20.332-20.391h288.738l91.017-136.924c2.045-3.059 4.984-3.495 6.551-3.495 1.57 0 4.508 0.436 6.552 3.495l90.998 136.924h288.759c11.219 0 20.332 9.134 20.332 20.391v489.398c0 11.239-9.114 20.391-20.332 20.391h-772.615zM288.349 580.178c33.694 0 60.994-27.321 60.994-60.996s-27.301-60.995-60.994-60.995c-33.695 0-60.996 27.321-60.996 60.995-0.001 33.675 27.301 60.996 60.996 60.996zM511.999 580.178c33.695 0 60.995-27.321 60.995-60.996s-27.301-60.995-60.995-60.995-60.995 27.321-60.995 60.995c0 33.675 27.302 60.996 60.995 60.996zM735.652 580.178c33.694 0 60.995-27.321 60.995-60.996s-27.302-60.995-60.995-60.995c-33.695 0-60.996 27.321-60.996 60.995s27.301 60.996 60.996 60.996z" />
<glyph unicode="&#xe92c;" glyph-name="neike" d="M797.018 502.010c0 36.314-29.126 65.771-65.066 65.771-35.794 0-64.957-29.457-64.957-65.771 0-32.333 22.987-59.129 53.187-64.748v-198.681c0 0-14.714-137.692-147.64-137.692 0 0-147.749 1.562-147.749 137.692v137.692c0 0 118.179 11.993 118.179 107.786v41.786c0 0 113.706 242.462-29.496 269.429l-0.113-0.151c-1.491 20.114-18.103 36.054-38.288 36.054-21.226 0-38.473-17.469-38.473-38.96 0-21.454 17.242-38.843 38.473-38.843 10.838 0 20.71 4.581 27.672 11.955h10.728c0 0 97.468-5.997 5.921-227.491v-59.851c0 0-14.824-77.765-112.29-77.765 0 0-100.411-4.51-112.219 71.844v65.773c0 0-98.959 230.474 17.691 233.45v0.223c6.818-10.948 18.771-18.136 32.477-18.136 21.268 0 38.435 17.393 38.435 38.847 0 21.491-17.167 38.955-38.435 38.955-18.251 0-33.406-12.886-37.391-30.091-25.254-1.902-135.684-23.948-42.311-269.207l5.883-59.814c0 0 7.373-95.792 124.028-95.792v-155.606c0 0 2.977-155.61 177.282-155.61 0 0 156.5-5.992 177.21 149.576v224.041c27.277 7.827 47.261 33.174 47.261 63.337v0z" />
<glyph unicode="&#xe92d;" glyph-name="next" d="M10.381 446.822c0 274.544 223.646 497.888 498.566 497.888s498.56-223.345 498.56-497.888c0-274.555-223.646-497.894-498.56-497.894-274.92 0-498.566 223.339-498.566 497.894v0zM936.286 446.822c0 235.327-191.699 426.763-427.339 426.763-235.645 0-427.344-191.441-427.344-426.763 0-235.328 191.699-426.769 427.344-426.769 235.64 0 427.339 191.441 427.339 426.769v0zM568.632 244.039l178.339 176.142c10.544 10.389 13.181 25.749 7.944 38.662-0.321 0.813-1.104 1.453-1.493 2.24-1.639 3.304-3.42 6.614-6.168 9.391-0.031 0.031-0.069 0.031-0.1 0.067-0.036 0.032-0.036 0.074-0.074 0.111l-176.853 177.102c-13.885 13.908-36.428 13.94-50.349 0.073-6.983-6.936-10.47-16.079-10.47-25.177 0-9.071 3.451-18.173 10.396-25.109l114.957-115.158h-339.485c-19.696 0-35.618-15.933-35.618-35.561 0-19.632 15.922-35.565 35.618-35.565h341.371l-118.088-116.654c-7.055-6.936-10.575-16.112-10.575-25.282 0-9.033 3.415-18.068 10.291-25.004 13.812-13.971 36.36-14.113 50.355-0.278v0z" />
<glyph unicode="&#xe92e;" glyph-name="off" d="M659.729 751.303v-50.227c100.741-53.148 169.466-158.779 169.466-280.607 0-175.197-142.007-317.204-317.227-317.204-175.197 0-317.203 142.007-317.203 317.204 0 120.721 67.42 225.601 166.634 279.235v50.249c-124.949-57.219-211.949-183.052-211.949-329.484 0-200.201 162.32-362.521 362.52-362.521 200.222 0 362.542 162.32 362.542 362.521-0.001 147.538-88.286 274.256-214.782 330.834zM484.597 874.591h56.644v-441.821h-56.644v441.821z" />
<glyph unicode="&#xe92f;" glyph-name="order-done" d="M735.963 703.874c-35.322 0-63.99 28.667-63.99 63.99v127.979l191.969-191.969h-127.979zM863.942 63.979c0-35.322-28.667-63.99-63.99-63.99h-575.906c-35.322 0-63.99 28.667-63.99 63.99v767.874c0 35.322 28.667 63.99 63.99 63.99h383.073c-0.608-76.627 0.864-127.979 0.864-127.979 0-70.676 57.303-127.979 127.979-127.979h127.979v-575.906zM671.974 959.833v-0.896c-4.095 0-21.181 1.568-63.99 0.896h-383.937c-70.676 0-127.979-57.303-127.979-127.979v-767.874c0-70.676 57.303-127.979 127.979-127.979h575.906c70.676 0 127.979 57.303 127.979 127.979v639.896l-255.958 255.958zM712.959 528.671c-12.798-5.471-280.85-292.752-292.624-292.624s-103.791 113.485-119.82 119.82c-14.398 2.752-40.697-16.573-34.362-34.458 6.367-17.885 140.041-154.375 154.183-154.151s323.019 315.596 327.019 327.019c3.967 11.422-13.502 39.929-34.394 34.394z" />
<glyph unicode="&#xe930;" glyph-name="pass" d="M381.568 850.112h260.8v43.52h-260.8v-43.52zM403.328 763.2h217.344v43.52h-217.344v-43.52zM490.24 850.112v-43.456h43.52v43.456h-43.52zM729.344 784.96h43.52c48.832 0 86.912-38.080 86.912-86.912v-543.424c0-59.776-49.024-108.672-108.672-108.672h-478.208c-59.712 0-108.672 48.96-108.672 108.672v543.36c0 48.832 38.144 86.912 86.976 86.912h43.456v43.52h-43.456c-72.896 0-130.432-57.6-130.432-130.432v-543.424c0-83.84 68.416-152.192 152.128-152.192h478.272c83.776 0 152.128 68.352 152.128 152.192v543.424c0 72.832-57.472 130.432-130.368 130.432h-43.52v-43.456zM336.576 416.96l153.664-153.664 30.72 30.72-153.664 153.664-30.72-30.72zM720.896 555.264l-230.656-230.592 30.72-30.656 230.592 230.528-30.656 30.72z" />
<glyph unicode="&#xe931;" glyph-name="pause" d="M128 960h256v-1024h-256v1024zM640 960h256v-1024h-256v1024z" />
<glyph unicode="&#xe932;" glyph-name="pdf" d="M815.886 0.425h-607.77c-36.701 0-66.553 29.85-66.553 66.536v762.047c0 36.707 29.852 66.566 66.553 66.566h473.937l200.384-209.47v-619.143c0-36.687-29.852-66.536-66.551-66.536zM208.115 851.655c-12.481 0-22.632-10.159-22.632-22.647v-762.047c0-12.468 10.151-22.619 22.632-22.619h607.77c12.479 0 22.63 10.151 22.63 22.619v601.517l-175.222 183.177h-455.179zM860.477 655.331h-143.211c-36.701 0-66.553 29.851-66.553 66.537v151.746c0 8.971 5.462 17.041 13.783 20.38 8.306 3.317 17.828 1.293 24.048-5.196l187.802-196.324c6.076-6.355 7.777-15.726 4.317-23.81-3.446-8.086-11.395-13.333-20.187-13.333zM694.633 818.894v-97.025c0-12.474 10.151-22.618 22.632-22.618h91.814l-114.447 119.643zM803.99 366.707c-0.644 4.819-4.475 10.766-8.62 14.84l-0.058-0.028c-11.694 11.538-37.642 17.672-77.174 18.185-26.736 0.286-58.947-2.072-92.787-6.803-15.167 8.763-30.795 18.241-43.046 29.722-32.968 30.795-60.517 73.556-77.704 120.608 1.13 4.389 2.059 8.262 2.974 12.194 0 0 18.571 105.554 13.666 141.253-0.686 4.876-1.099 6.319-2.414 10.136l-1.617 4.147c-5.060 11.651-14.968 24.004-30.508 23.332l-9.352 0.286c-17.327 0-31.467-8.864-35.17-22.103-11.28-41.547 0.358-103.695 21.445-184.215l-5.404-13.11c-15.112-36.787-33.997-73.816-50.681-106.526l-2.172-4.233c-17.543-34.341-33.469-63.477-47.896-88.197l-14.91-7.878c-1.101-0.583-26.622-14.094-32.612-17.684-50.826-30.38-84.523-64.822-90.085-92.171-1.787-8.736-0.472-19.887 8.592-25.063l14.412-7.261c6.262-3.102 12.839-4.718 19.587-4.718 36.227 0 78.247 45.122 136.133 146.157 66.836 21.76 142.967 39.859 209.662 49.824 50.826-28.623 113.345-48.496 152.804-48.496 7.019 0 13.039 0.644 17.956 1.959 7.579 2.017 13.926 6.306 17.844 12.194 7.677 11.527 9.206 27.396 7.133 43.65zM254.578 188.869c6.605 18.072 32.74 53.77 71.386 85.41 2.401 1.973 8.392 7.577 13.896 12.81-40.419-64.479-67.482-90.127-85.282-98.22zM483.441 715.878c11.638 0 18.258-29.336 18.801-56.815s-5.876-46.793-13.869-61.077c-6.603 21.131-9.793 54.473-9.793 76.26 0 0-0.5 41.632 4.861 41.632zM415.189 340.331h-0.028c8.107 14.526 16.555 29.808 25.177 46.021 21.001 39.731 34.283 70.826 44.176 96.388 19.644-35.784 44.12-66.179 72.913-90.512 3.59-3.058 7.377-6.090 11.366-9.149-58.502-11.581-109.070-25.649-153.604-42.748zM784.044 343.591v0.028c-3.531-2.231-13.767-3.502-20.315-3.502-21.175 0-47.393 9.677-84.167 25.433 14.154 1.044 27.065 1.587 38.674 1.587 21.259 0 27.564 0.044 48.337-5.232 20.803-5.305 21.075-16.056 17.471-18.314z" />
<glyph unicode="&#xe933;" glyph-name="phone" d="M736-32h-448c-52.928 0-96 43.072-96 96v768c0 52.928 43.072 96 96 96h448c52.928 0 96-43.072 96-96v-768c0-52.928-43.072-96-96-96zM288 864c-17.632 0-32-14.368-32-32v-768c0-17.664 14.368-32 32-32h448c17.664 0 32 14.336 32 32v768c0 17.632-14.336 32-32 32h-448zM512 63.584c-35.296 0-64 28.704-64 64s28.704 64 64 64c35.296 0 64-28.704 64-64s-28.704-64-64-64zM512.032 127.584c0 0-0.064 0-0.064-0.032l0.032-31.968 0.032 32zM704 224h-384c-17.664 0-32 14.304-32 32v544c0 17.664 14.336 32 32 32h384c17.696 0 32-14.336 32-32v-544c0-17.696-14.304-32-32-32zM352 288h320v480h-320v-480z" />
<glyph unicode="&#xe934;" glyph-name="pifu" d="M627.734 451.713c31.090 0 62.218 11.128 82.702 32.981 7.619 8.143 7.217 20.888-0.93 28.509-8.144 7.617-20.927 7.213-28.505-0.931-25.726-27.455-78.749-24.756-102.455-3.345-8.268 7.46-21.007 6.814-28.509-1.45-7.46-8.267-6.814-21.011 1.453-28.509 20.241-18.222 48.262-27.255 76.246-27.255v0zM878.815 748.278c-1.896 10.924-12.297 18.265-23.346 16.369-10.967-1.937-18.307-12.378-16.37-23.348 20.927-119.51 29.314-187.088-24.637-299.303l-6.372-13.228c-35.399-73.384-66.894-138.582-53.142-200.676-16.692 7.698-34.716 20.804-43.506 42.58 50.885 83.221 81.728 194.71 90.562 287.29 0.081 0.685-0.204 1.33-0.204 2.014 0 1.412-0.119 2.742-0.442 4.073-0.281 1.25-0.605 2.419-1.131 3.588-0.523 1.211-1.088 2.299-1.811 3.349-0.727 1.047-1.491 2.015-2.422 2.941-0.884 0.889-1.852 1.654-2.903 2.38-1.127 0.765-2.295 1.369-3.588 1.896-0.647 0.28-1.128 0.764-1.815 0.966-105.197 31.412-181.447 121.69-194.429 190.84-2.058 10.928-12.42 18.184-23.506 16.089-10.928-2.058-18.145-12.578-16.089-23.506 14.274-76.33 91.166-174.833 206.488-215.963-14.839-124.594-68.59-278.338-157.74-337.368-68.866-45.564-92.696-55.119-100.559-55.119-18.993 0-59.799 27.497-84.153 43.91l-14.312 9.556c-54.638 35.927-84.636 110.842-119.313 197.574l-8.144 20.362c-4.191 10.363-15.928 15.285-26.249 11.171-10.321-4.191-15.324-15.928-11.171-26.21l8.106-20.242c16.897-42.214 33.466-83.183 53.025-119.309-43.507 25.967-101.087 78.464-131.731 182.897-3.107 10.685-14.274 16.777-25.040 13.67-10.686-3.146-16.812-14.355-13.67-25.041 53.308-181.604 181.931-225.433 212.616-233.501 11.855-13.425 24.799-25.441 39.473-35.078l13.913-9.275c42.698-28.79 77.66-50.804 106.689-50.804 24.395 0 65.078 23.668 124.351 62.902 21.815 14.436 41.572 34.070 59.514 57.015 33.832-48.428 97.499-55.888 100.563-56.207 0.728-0.082 1.45-0.123 2.138-0.123 6.772 0 13.182 3.426 16.935 9.232 4.154 6.372 4.314 14.559 0.443 21.13-32.74 55.847-1.292 121.006 38.546 203.504l6.413 13.262c59.194 123.1 49.799 199.429 28.023 323.742v0zM423.545 273.654c-5.764-9.517-2.699-21.938 6.818-27.702 1.852-1.088 31.047-18.346 70.762-18.346 21.411 0 45.887 4.999 70.724 20.28 9.475 5.849 12.459 18.227 6.653 27.741-5.888 9.479-18.304 12.54-27.741 6.615-49.674-30.444-97.618-2.904-99.633-1.693-9.517 5.682-21.857 2.618-27.582-6.895v0zM232.343 603.078l75.604-28.387 29.113-98.303c2.538-8.548 10.402-14.436 19.311-14.436h0.082c8.951 0.042 16.816 5.969 19.315 14.554l28.305 98.145 76.247 28.387c7.906 2.941 13.185 10.525 13.146 18.992-0.042 8.468-5.364 16.005-13.308 18.869l-76.085 27.66-28.305 98.788c-2.461 8.59-10.321 14.559-19.274 14.596h-0.041c-8.952 0-16.813-5.888-19.355-14.474l-29.151-98.911-75.442-27.66c-7.902-2.903-13.185-10.401-13.223-18.83-0.043-8.425 5.16-16.008 13.061-18.992v0zM331.372 634.206c6.006 2.219 10.606 7.137 12.42 13.227l12.378 42.015 11.975-41.853c1.773-6.209 6.411-11.17 12.502-13.389l34.274-12.46-34.434-12.82c-6.011-2.219-10.568-7.137-12.341-13.309l-12.017-41.568-12.336 41.73c-1.776 6.048-6.332 10.928-12.259 13.146l-34.15 12.82 33.989 12.46z" />
<glyph unicode="&#xe935;" glyph-name="play" d="M512 903.111c-250.937 0-455.111-204.174-455.111-455.111s204.174-455.111 455.111-455.111 455.111 204.174 455.111 455.111c0 250.937-204.174 455.111-455.111 455.111zM512 49.778c-219.591 0-398.222 178.603-398.222 398.222 0 219.591 178.631 398.222 398.222 398.222s398.222-178.631 398.222-398.222c0-219.62-178.631-398.222-398.222-398.222zM387.556 245.988l339.911 196.21-339.911 196.21v-392.42z" />
<glyph unicode="&#xe936;" glyph-name="play2" horiz-adv-x="1269" d="M361.131 923.866l711.478-493.912-711.478-493.954z" />
<glyph unicode="&#xe937;" glyph-name="player-o" d="M887.424 186.656l-101.472 40.912c-0.672 0-1.28 0.144-1.952 0.208v-83.776c0-44.176-35.824-80-80.016-80h-527.984c-44.176 0-80 35.824-80 80v352c0 44.192 35.824 80 80 80h40.128c-33.392 26.192-54.96 66.976-54.96 112.912 0 79.040 63.6 143.104 142.048 143.104 59.872 0 111.008-37.376 131.888-90.208 20.912 52.816 72.048 90.192 131.904 90.192 78.464 0 142.048-64.064 142.048-143.104 0-45.936-21.568-86.72-54.944-112.912h49.856c44.208 0.016 80.032-35.792 80.032-79.968v-73.104c0.672 0.048 1.28 0.208 1.952 0.208l101.472 40.912c22.416 0 40.576-18.32 40.576-40.912v-195.536c0-22.608-18.16-40.928-40.576-40.928v0zM304 784c-53.008 0-96-42.976-96-96 0-53.008 42.976-96 96-96s96 42.976 96 96c0 53.008-42.992 96-96 96v0zM389.856 576h90.512c-19.888 15.568-35.776 36.048-45.264 60-9.44-23.952-25.36-44.448-45.248-60v0zM656 688c0 53.008-42.976 96-96 96-53.040 0-96.016-42.976-96.016-96 0-53.008 42.976-96 96.016-96 53.024 0 96 42.992 96 96v0zM736.016 496.016c0 17.664-14.336 32-32.016 32h-528c-17.68 0-32-14.336-32-32v-352c0-17.68 14.304-32 32-32h527.984c17.68 0 32.016 14.304 32.016 32v352h0.016zM880 399.984l-96-32v-96l96-32v160zM384 431.984l144-111.984-144-112v223.984z" />
<glyph unicode="&#xe938;" glyph-name="player" d="M846.257 463.755l-80.075-29.116v13.104c0 35.374-28.682 64.056-64.064 64.056h-10.996c45.348 31.875 75.068 84.491 75.068 144.132 0 97.296-78.878 176.169-176.178 176.169-59.644 0-112.265-29.716-144.14-75.067-31.874 45.351-84.494 75.067-144.139 75.067-97.298 0-176.178-78.873-176.178-176.165 0-59.644 29.717-112.261 75.068-144.136h-11.001c-35.378 0-64.060-28.678-64.060-64.056v-320.298c0-35.378 28.682-64.056 64.060-64.056h512.494c35.382 0 64.064 28.678 64.064 64.056v13.101l80.075-29.116c35.382 0 48.049 12.664 48.049 48.042v256.237c0.001 35.381-12.668 48.045-48.048 48.045v0zM445.873 554.83c11.753-16.722 26.357-31.271 43.061-43.030h-86.12c16.702 11.759 31.304 26.308 43.060 43.030v0zM189.621 655.936c0 61.913 50.2 112.105 112.113 112.105 61.886 0 112.060-50.146 112.105-112.022 0-0.030-0.004-0.057-0.004-0.091 0-0.023 0.004-0.052 0.004-0.080-0.046-61.875-50.219-112.025-112.105-112.025-61.914 0-112.113 50.196-112.113 112.113v0zM571.65 274.233l-174.494-113.21c-4.545-2.959-10.617-3.492-15.925-1.372-5.118 2.144-8.325 6.452-8.325 11.236v226.457c0 4.806 3.211 9.088 8.325 11.231 0.028 0 0.103 0.031 0.122 0.042 5.21 2.102 11.285 1.57 15.792-1.379l174.463-113.222c3.667-2.356 5.817-6.067 5.817-9.905 0-3.896-2.099-7.479-5.776-9.877v0zM590.013 543.822c-61.917 0-112.109 50.196-112.109 112.113 0 61.913 50.196 112.105 112.109 112.105 61.917 0 112.113-50.195 112.113-112.105-0.001-61.917-50.197-112.113-112.113-112.113v0z" />
<glyph unicode="&#xe939;" glyph-name="plus" d="M896.055 511.912h-320.019v320.019h-128.008v-320.019h-320.020v-128.008h320.020v-320.020h128.008v320.020h320.019z" />
<glyph unicode="&#xe93a;" glyph-name="ppt" d="M905.152 846.871h-786.405c-30.161 0-54.703-24.542-54.703-54.703s24.542-54.703 54.703-54.703h12.822v-456.434c0-40.549 32.986-73.535 73.535-73.535h295.522v-61.267c-21.696-6.31-37.603-26.357-37.603-50.061 0-28.749 23.39-52.138 52.138-52.138s52.138 23.39 52.138 52.138c0 23.080-15.080 42.693-35.901 49.536v61.793h289.091c40.549 0 73.545 32.986 73.545 73.535v456.433h11.119c30.161 0 54.703 24.542 54.703 54.703s-24.544 54.703-54.705 54.703zM515.16 74.801c-11.78 0-21.367 9.586-21.367 21.367s9.586 21.367 21.367 21.367 21.367-9.586 21.367-21.367c0-11.78-9.586-21.367-21.367-21.367zM863.261 281.031c0-23.58-19.192-42.763-42.772-42.763h-615.386c-23.58 0-42.763 19.183-42.763 42.763v456.434h700.92v-456.434zM905.152 768.238h-786.405c-13.192 0-23.931 10.739-23.931 23.931s10.739 23.931 23.931 23.931h786.405c13.192 0 23.931-10.739 23.931-23.931s-10.739-23.931-23.931-23.931zM287.253 365.835l79.495-12.822c0.831-0.14 1.653-0.201 2.464-0.201 6.481 0 12.391 4.107 14.544 10.408l28.108 82.149 134.348-53.551c3.867-1.543 8.174-1.443 11.99 0.251 3.796 1.703 6.742 4.868 8.164 8.775l67.475 185.325h135.4c8.494 0 15.386 6.892 15.386 15.386s-6.892 15.386-15.386 15.386h-146.168c-6.471 0-12.241-4.047-14.454-10.117l-65.741-180.546-134.638 53.661c-3.907 1.552-8.274 1.433-12.13-0.31-3.826-1.763-6.761-5.018-8.124-9.005l-29.14-85.165-66.683 10.748c-8.365 1.362-16.297-4.347-17.64-12.732-1.353-8.395 4.347-16.288 12.731-17.641z" />
<glyph unicode="&#xe93b;" glyph-name="qr" d="M928.389 417.046h-833.857c-17.706 0-32.074 14.366-32.074 32.066 0 17.705 14.368 32.072 32.074 32.072h833.856c17.734 0 32.074-14.368 32.074-32.072 0-17.7-14.339-32.066-32.073-32.066v0zM832.172 32.198h-192.426c-17.734 0-32.073 14.34-32.073 32.073s14.339 32.072 32.073 32.072h192.426c17.706 0 32.074 14.366 32.074 32.066v160.351c0 17.734 14.334 32.073 32.075 32.073 17.734 0 32.068-14.34 32.068-32.073v-160.351c0-53.042-43.168-96.212-96.216-96.212v0zM351.099 32.198h-160.359c-53.042 0-96.209 43.171-96.209 96.212v160.351c0 17.734 14.367 32.073 32.068 32.073 17.705 0 32.074-14.34 32.074-32.073v-160.351c0-17.7 14.397-32.066 32.068-32.066h160.359c17.706 0 32.074-14.34 32.074-32.072 0-17.734-14.368-32.073-32.074-32.073v0zM126.6 577.397c-17.701 0-32.068 14.367-32.068 32.066v160.351c0 53.045 43.168 96.211 96.209 96.211h160.359c17.706 0 32.074-14.367 32.074-32.072 0-17.699-14.368-32.066-32.074-32.066h-160.359c-17.67 0-32.068-14.402-32.068-32.072v-160.351c0-17.7-14.369-32.066-32.074-32.066v0zM896.321 577.397c-17.741 0-32.075 14.367-32.075 32.066v160.351c0 17.671-14.368 32.072-32.074 32.072h-192.426c-17.734 0-32.073 14.367-32.073 32.066 0 17.705 14.339 32.072 32.073 32.072h192.426c53.048 0 96.216-43.166 96.216-96.211v-160.351c0-17.7-14.334-32.066-32.068-32.066v0z" />
<glyph unicode="&#xe93c;" glyph-name="rank" d="M403.328 816.512h572.416c20.032 0 36.288 16.256 36.288 36.288s-16.256 36.288-36.288 36.288h-572.416c-20.032 0-36.288-16.256-36.288-36.288s16.256-36.288 36.288-36.288zM403.328 559.744h572.416c20.032 0 36.288 16.256 36.288 36.288s-16.256 36.288-36.288 36.288h-572.416c-20.032 0-36.288-16.256-36.288-36.288s16.256-36.288 36.288-36.288zM406.528 288.96h572.416c20.032 0 36.288 16.256 36.288 36.288s-16.256 36.288-36.288 36.288h-572.416c-20.032 0-36.288-16.256-36.288-36.288s16.256-36.288 36.288-36.288zM986.688 90.688h-572.416c-20.032 0-36.288-16.256-36.288-36.288s16.256-36.288 36.288-36.288h572.416c20.032 0 36.288 16.256 36.288 36.288s-16.32 36.288-36.288 36.288zM57.536 780.352l24.768 21.632v-239.808c0-17.152 13.888-31.104 31.104-31.104s31.104 13.888 31.104 31.104v308.224c0 12.16-7.104 23.232-18.24 28.288-11.072 5.056-24.128 3.136-33.28-4.928l-76.352-66.624c-12.928-11.264-14.272-30.912-2.944-43.84 11.264-12.928 30.912-14.272 43.84-2.944zM152.768 89.984c25.472 18.112 51.328 38.144 70.912 62.208 19.712 24.192 32.96 52.48 32.96 86.848 0 67.136-54.464 121.6-121.664 121.6-40.768 0-76.736-20.096-98.816-50.88-13.696-19.072-28.608-46.272-21.184-70.72 3.264-10.752 12.48-19.2 24.32-20.8 1.344-0.192 2.688-0.256 4.032-0.256 10.752 0 20.416 5.824 25.536 14.848 1.088 1.92 2.048 4.032 2.688 6.208 9.6 31.808 25.408 60.864 63.424 60.864 18.944 0 35.776-9.792 48-23.744 22.4-25.728 15.232-70.592-10.432-91.584 0 0-98.176-80.448-139.968-114.688-13.888-11.392-31.488-25.792-31.488-45.632 0-16.384 13.248-29.632 29.632-29.632h195.776c16.384 0 29.632 13.248 29.632 29.632s-13.248 29.632-29.632 29.632h-116.288c0.96 1.6 1.664 2.688 1.664 2.688s40.896 33.408 40.896 33.408z" />
<glyph unicode="&#xe93d;" glyph-name="reg" d="M524.343 268.687l204.554 204.595c10.549 10.549 24.566 16.347 39.475 16.347 14.922 0 28.924-5.798 39.473-16.347l18.586-18.59c21.758-21.768 21.758-57.19 0-78.948l-204.564-204.616-156.344-58.202 58.821 155.761zM521.794 169.179l82.051 30.568 2.208 2.21-51.163 51.153-2.245-2.257-30.851-81.674zM629.238 225.137l134.414 134.441-51.167 51.175-134.404-134.447 51.157-51.169zM786.829 382.769l16.529 16.515c8.978 8.989 8.978 23.601 0.012 32.592l-18.571 18.586c-4.36 4.346-10.15 6.732-16.308 6.732-6.156 0-11.95-2.388-16.294-6.732l-16.511-16.542 51.143-51.151zM842.744 133.016c-0.039 1.374-0.238 2.763-0.707 4.839l-1.010 7.404c-7.85 57.381-27.116 110.707-55.595 157.125l-29.241-28.41c22.888-39.133 38.83-83.282 45.773-130.218l0.741-5.005 0.819-0.084v-6.117c0-10.811 8.815-19.622 19.634-19.622 10.703 0 19.417 8.6 19.595 19.796l-0.010 0.293zM652.931 430.83c-7.449 4.182-15.016 8.167-22.79 11.833l-8.557 4.018 7.168 6.154c48.335 41.441 76.063 101.503 76.063 164.798 0 119.728-97.409 217.119-217.123 217.119-119.73 0-217.131-97.391-217.131-217.119 0-63.295 27.718-123.355 76.055-164.798l7.176-6.154-8.542-4.018c-113.881-53.576-192.715-164.766-210.895-297.404l-1.276-9.331v-3.381c0-10.811 8.819-19.622 19.626-19.622 10.826 0 19.644 8.81 19.644 19.595l-0.264 2.327 1.321 8.909c19.12 129.141 105.63 237.636 220.41 276.439l2.292 0.778 2.198-0.997c28.396-12.913 58.466-19.466 89.387-19.466 30.906 0 60.979 6.554 89.367 19.466l2.208 0.997 2.292-0.778c15.426-5.212 30.274-11.77 44.575-19.382l26.798 30.018zM573.852 461.66c-15.143-8.403-31.439-14.537-48.439-18.223-12.618-2.726-25.303-4.088-37.718-4.088-12.444 0-25.123 1.362-37.708 4.088-16.982 3.666-33.288 9.81-48.462 18.233-56.824 31.502-92.123 91.259-92.123 155.961 0 98.3 79.978 178.285 178.291 178.285 98.296 0 178.266-79.985 178.266-178.285 0.002-64.698-35.279-124.457-92.107-155.972z" />
<glyph unicode="&#xe93e;" glyph-name="reply" d="M544 0.256c-3.936 0-7.936 0.704-11.712 2.208-12.256 4.832-20.288 16.64-20.288 29.792v286.976c-238.56-11.584-392.896-149.28-394.496-150.72-10.176-9.248-25.056-10.976-37.056-4.288-12 6.656-18.4 20.224-15.936 33.728 0.832 4.512 20.896 111.296 88.896 219.2 91.872 145.792 226.912 222.816 390.592 222.816 17.696 0 32-14.336 32-32s-14.304-32-32-32c-238.592 0-346.784-188.384-390.56-303.136 79.712 48.832 215.744 111.168 390.56 111.168 17.696 0 32-14.304 32-32v-238.464l308.384 330.912-308.384 334.24v-42.688c0-17.664-14.304-32-32-32-17.664 0-32 14.336-32 32v124.576c0 13.184 8.064 24.992 20.352 29.792 12.256 4.832 26.208 1.6 35.2-8.096l384-416.224c11.328-12.32 11.296-31.296-0.128-43.52l-384-412.096c-6.176-6.624-14.72-10.176-23.424-10.176z" />
<glyph unicode="&#xe93f;" glyph-name="round-check-fill" d="M512 894.016c-245.92 0-446.016-200.096-446.016-446.016 0-245.952 200.064-446.016 446.016-446.016s446.016 200.064 446.016 446.016c0 245.92-200.064 446.016-446.016 446.016zM727.232 521.568l-256.224-259.008c-0.064-0.064-0.192-0.096-0.256-0.192-0.096-0.064-0.096-0.192-0.192-0.256-2.048-1.984-4.576-3.2-6.944-4.544-1.184-0.672-2.144-1.696-3.392-2.176-3.84-1.536-7.904-2.336-11.968-2.336-4.096 0-8.224 0.8-12.096 2.4-1.28 0.544-2.304 1.632-3.52 2.304-2.368 1.344-4.832 2.528-6.88 4.544-0.064 0.064-0.096 0.192-0.16 0.256-0.064 0.096-0.192 0.096-0.256 0.192l-126.016 129.504c-12.32 12.672-12.032 32.928 0.64 45.248 12.672 12.288 32.896 12.064 45.248-0.64l103.264-106.112 233.28 235.84c12.416 12.576 32.704 12.704 45.248 0.256 12.512-12.448 12.64-32.704 0.224-45.28z" />
<glyph unicode="&#xe940;" glyph-name="round-check" d="M522.768 892.351c-248.906 0-451.408-202.493-451.408-451.407s202.502-451.408 451.408-451.408 451.407 202.492 451.407 451.408c0 248.915-202.501 451.407-451.407 451.407zM522.768 58.983c-210.615 0-381.959 171.347-381.959 381.96s171.346 381.959 381.959 381.959 381.959-171.346 381.959-381.959c0-210.613-171.346-381.96-381.959-381.96zM731.717 621.361c-14.723 12.292-36.619 10.274-48.896-4.476l-247.015-296.813-128.248 119.142c-14.055 13.039-36.030 12.227-49.076-1.812-13.056-14.057-12.242-36.029 1.805-49.085l155.113-144.084c6.441-5.969 14.895-9.274 23.634-9.274 0.737 0 1.483 0.017 2.221 0.068 9.521 0.608 18.371 5.119 24.466 12.443l270.475 324.992c12.266 14.735 10.264 36.64-4.479 48.899z" />
<glyph unicode="&#xe941;" glyph-name="round" d="M512 0c-247.040 0-448 200.96-448 448s200.96 448 448 448 448-200.96 448-448-200.96-448-448-448zM512 832c-211.744 0-384-172.256-384-384s172.256-384 384-384c211.744 0 384 172.256 384 384s-172.256 384-384 384z" />
<glyph unicode="&#xe942;" glyph-name="scores" d="M521.165 67.123v198.886c-21.888-1.613-44.442-2.483-67.558-2.483-176.538 0-322.842 48.691-376.832 118.323v-230.17c0-84.557 172.57-155.955 376.832-155.955 41.779 0 82.048 3.149 119.962 8.602-32.717 17.203-52.403 39.014-52.403 62.797zM453.632 553.651c-176.538 0-322.842 48.691-376.832 118.298v-230.17h1.024c13.85-78.259 182.451-151.347 375.808-151.347 23.014 0 45.542 1.050 67.558 2.739v115.712c0 11.546 4.838 22.579 13.338 32.896 32.333 39.322 120.781 67.61 225.126 67.61 24.678 0 48.486-1.613 70.861-4.506v167.066c-54.016-69.606-200.32-118.298-376.883-118.298zM453.632 883.2c-201.83 0-372.352-69.299-372.352-151.322 0-81.997 170.522-151.296 372.352-151.296 201.882 0 372.378 69.299 372.378 151.296 0 82.022-170.522 151.322-372.378 151.322zM847.539 144.102c-3.021-0.538-6.093-1.024-9.19-1.485-3.046-0.512-6.067-1.050-9.19-1.485-21.734-2.944-44.851-4.582-68.941-4.582-89.062 0-164.838 21.683-204.083 54.246v-107.699c0-24.397 32.077-49.894 85.939-65.587 5.99-1.741 12.314-3.328 18.842-4.813 6.426-1.459 13.133-2.739 20.045-3.917 23.834-4.096 50.355-6.502 79.232-6.502 122.061 0 204.083 41.805 204.083 80.819v107.699c-25.549-21.171-66.637-37.709-116.736-46.694zM848.384 303.514c-2.918-0.538-5.939-0.973-8.96-1.459-2.97-0.512-5.888-0.998-8.96-1.459-21.965-3.046-45.517-4.71-70.272-4.71-21.939 0-42.906 1.382-62.694 3.763-10.547 1.331-20.813 2.867-30.592 4.813-9.958 1.92-19.405 4.198-28.467 6.758-35.738 10.010-64.154 24.422-82.304 41.907v-119.782c12.262-34.688 92.518-69.862 204.083-69.862 25.19 0 48.666 1.843 70.272 5.043 3.021 0.461 6.016 0.896 8.96 1.382 3.021 0.538 5.99 1.075 8.96 1.638 64.179 12.314 107.213 37.12 115.891 61.773v119.808c-23.603-22.605-64.384-40.218-115.917-49.613zM848.384 467.072c-2.97 0.589-5.862 1.203-8.96 1.741-2.893 0.512-5.939 0.922-8.96 1.382-21.53 3.277-45.030 5.222-70.272 5.222-70.298 0-127.667-14.413-162.637-33.638-23.526-12.979-36.966-28.16-36.966-42.65 0-28.826 52.454-60.262 133.504-71.706 9.549-1.357 19.482-2.406 29.747-3.149 9.626-0.691 19.558-1.126 29.747-1.28 2.227-0.026 4.352-0.128 6.605-0.128 25.242 0 48.742 1.92 70.272 5.197 2.995 0.461 6.042 0.87 8.96 1.382 3.072 0.538 5.965 1.178 8.96 1.766 68.326 13.594 111.437 41.779 111.437 67.891s-43.11 54.323-111.437 67.968z" />
<glyph unicode="&#xe943;" glyph-name="search" d="M243.524 311.58c-111.648 111.624-111.648 293.254 0 404.878 54.089 54.116 125.98 83.86 202.479 83.86 76.441 0 148.333-29.744 202.422-83.86 111.648-111.624 111.648-293.254 0-404.878-54.089-54.059-125.98-83.86-202.479-83.86-76.441 0-148.333 29.8-202.422 83.86v0zM921.6 78.888l-214.48 214.484c114.093 134.978 109.031 336.343-18.2 463.574-67.114 67.122-155.044 100.654-242.918 100.654-87.93 0-175.861-33.533-242.974-100.654-134.171-134.13-134.171-351.667 0-485.854 67.114-67.065 155.044-100.654 242.918-100.654 78.887 0 156.864 28.5 220.679 82.446l214.536-214.484 40.439 40.488z" />
<glyph unicode="&#xe944;" glyph-name="share" d="M928.071 442.516c-16.73 0-30.265-13.506-30.265-30.173v-285.17c0-36.605-29.905-66.379-66.63-66.379h-638.962c-36.735 0-66.621 29.775-66.621 66.379v598.825c0 36.6 29.888 66.374 66.621 66.374h208.26c16.73 0 30.284 13.507 30.284 30.169 0 16.649-13.554 30.155-30.284 30.155h-208.26c-70.124 0-127.18-56.834-127.18-126.699v-598.825c0-69.868 57.055-126.699 127.18-126.699h638.961c70.132 0 127.179 56.83 127.179 126.699v285.171c0 16.668-13.553 30.173-30.283 30.173v0 0zM292.649 265.742c-3.010-16.378 7.886-32.089 24.334-35.096 1.839-0.342 3.67-0.499 5.483-0.499 14.337 0 27.089 10.188 29.746 24.733 0.237 1.279 24.255 128.136 107.88 254.26 48.65 73.406 107.615 131.771 175.24 173.486 64.562 39.818 137.512 64.603 217.634 74.063l-98.577-101.326c-11.634-11.958-11.335-31.054 0.668-42.649 5.879-5.685 13.474-8.513 21.070-8.513 7.894 0 15.806 3.078 21.737 9.175l152.614 156.867c0.124 0.109 0.22 0.236 0.335 0.347 0.158 0.158 0.299 0.333 0.457 0.503 0.176 0.175 0.335 0.363 0.511 0.557 0.008 0.031 0.026 0.061 0.061 0.079 0.159 0.188 0.3 0.36 0.441 0.553 0.158 0.188 0.334 0.395 0.475 0.601 0.159 0.188 0.291 0.377 0.448 0.566 0.159 0.236 0.317 0.459 0.493 0.697 0.105 0.158 0.202 0.316 0.317 0.474 0.105 0.158 0.202 0.316 0.299 0.473 0.044 0.048 0.079 0.109 0.123 0.175 0.018 0.031 0.053 0.079 0.062 0.128 0.097 0.158 0.193 0.316 0.291 0.456 0.158 0.284 0.317 0.538 0.475 0.806 0.079 0.158 0.159 0.316 0.237 0.456 0.035 0.065 0.062 0.127 0.097 0.175 0.106 0.219 0.22 0.443 0.334 0.662 0.088 0.175 0.168 0.363 0.247 0.553 0.132 0.255 0.255 0.491 0.352 0.758 0.097 0.206 0.176 0.412 0.256 0.618 0.105 0.255 0.202 0.473 0.28 0.71 0.097 0.236 0.193 0.473 0.274 0.709 0.079 0.224 0.14 0.443 0.202 0.649 0.097 0.267 0.176 0.522 0.255 0.789 0.062 0.207 0.115 0.412 0.159 0.618 0.097 0.267 0.158 0.552 0.22 0.82 0.035 0.175 0.079 0.334 0.132 0.503 0 0.048 0 0.097 0.027 0.145 0.053 0.25 0.097 0.522 0.158 0.789 0.018 0.14 0.053 0.299 0.079 0.456 0.018 0.114 0.036 0.236 0.053 0.351 0.027 0.202 0.062 0.407 0.097 0.614 0.027 0.144 0.044 0.284 0.062 0.411 0.026 0.207 0.044 0.395 0.061 0.583 0.018 0.127 0.036 0.236 0.036 0.346 0.009 0.097 0.026 0.193 0.026 0.303 0 0.061 0.018 0.128 0.035 0.175 0 0.268 0.027 0.518 0.027 0.789 0 0.047 0 0.079 0.017 0.127 0 0.158 0.018 0.315 0.018 0.473v0.013c0.018 0.334 0.018 0.649 0.018 0.965v0.031c0 0.509-0.018 0.996-0.036 1.486-0.017 0.048-0.017 0.080-0.017 0.127 0 0.093 0 0.171 0 0.268v0.017c-0.027 0.359-0.062 0.693-0.088 1.039-0.018 0.097-0.036 0.207-0.036 0.303v0c0 0.061 0 0.109-0.017 0.158-0.044 0.315-0.079 0.614-0.123 0.934-0.018 0.139-0.036 0.267-0.053 0.407-0.009 0.048-0.027 0.109-0.027 0.158-0.053 0.267-0.097 0.522-0.141 0.789-0.052 0.175-0.079 0.351-0.114 0.51 0 0.030 0 0.061-0.018 0.079-0.017 0.061-0.017 0.109-0.026 0.158-0.053 0.188-0.079 0.395-0.149 0.582-0.062 0.316-0.158 0.631-0.237 0.948-0.026 0.127-0.061 0.236-0.105 0.363-0.097 0.363-0.212 0.728-0.335 1.091-0.018 0.079-0.044 0.14-0.062 0.219-0.079 0.255-0.176 0.509-0.273 0.776 0 0.013-0.035 0.048-0.035 0.079-0.026 0.109-0.088 0.219-0.123 0.328-0.018 0.048-0.035 0.079-0.062 0.127-0.097 0.272-0.192 0.539-0.317 0.806-0.062 0.14-0.132 0.303-0.193 0.443 0 0.017-0.017 0.031-0.017 0.031-0.123 0.267-0.237 0.552-0.361 0.824 0 0-0.018 0-0.018 0.013-0.281 0.583-0.58 1.152-0.916 1.736v0c-0.237 0.412-0.475 0.807-0.712 1.219-0.035 0.031-0.071 0.079-0.097 0.109-0.132 0.236-0.291 0.459-0.448 0.679l-0.027 0.048c-0.061 0.111-0.132 0.22-0.22 0.334-0.079 0.109-0.158 0.236-0.255 0.359-0.071 0.079-0.132 0.175-0.193 0.255-0.061 0.096-0.123 0.175-0.193 0.254-0.061 0.092-0.123 0.171-0.185 0.268-0.158 0.207-0.317 0.412-0.492 0.618-0.079 0.092-0.176 0.202-0.255 0.298-0.044 0.062-0.097 0.128-0.141 0.189-0.203 0.236-0.413 0.473-0.633 0.71-0.053 0.065-0.097 0.127-0.159 0.192-0.29 0.316-0.607 0.614-0.888 0.929-0.035 0.031-0.062 0.048-0.097 0.079-0.317 0.316-0.652 0.649-0.985 0.947-0.027 0.017-0.027 0.017-0.044 0.035-0.353 0.316-0.677 0.614-1.065 0.898 0 0.017-0.026 0.048-0.044 0.061-0.335 0.272-0.687 0.556-1.047 0.806-0.044 0.031-0.079 0.079-0.141 0.109-0.317 0.236-0.633 0.459-0.968 0.679-0.096 0.079-0.192 0.144-0.28 0.206-0.168 0.109-0.325 0.223-0.493 0.316-0.132 0.096-0.255 0.158-0.387 0.254-0.159 0.079-0.317 0.175-0.44 0.268-0.141 0.079-0.274 0.158-0.413 0.236-0.141 0.079-0.281 0.145-0.432 0.236-0.167 0.096-0.343 0.188-0.52 0.272-0.255 0.14-0.51 0.267-0.756 0.395-0.193 0.109-0.396 0.188-0.608 0.28-0.22 0.114-0.475 0.223-0.712 0.32-0.22 0.109-0.457 0.189-0.677 0.28-0.211 0.096-0.448 0.192-0.668 0.272-0.256 0.091-0.492 0.171-0.766 0.267-0.184 0.079-0.396 0.14-0.598 0.207-0.124 0.048-0.256 0.079-0.397 0.127l-222.262 73.401c-15.877 5.261-33.029-3.319-38.274-19.131-5.272-15.812 3.344-32.887 19.194-38.129l89.415-29.52c-65.724-14.155-126.686-38.462-182.298-72.757-75.15-46.358-140.38-110.79-193.916-191.52-90.352-136.295-115.856-270.99-116.894-276.662v0 0z" />
<glyph unicode="&#xe945;" glyph-name="shop" d="M855.723 676.929h-174.293c-9.579 86.188-82.358 153.225-170.462 153.225-88.101 0-160.883-67.037-170.458-153.225h-174.293c-21.069 0-38.305-17.238-38.305-38.305v-497.973c0-42.137 34.474-76.614 76.611-76.614h612.891c42.137 0 76.615 34.477 76.615 76.614v497.973c0 21.068-17.236 38.305-38.305 38.305v0zM510.969 791.848c67.036 0 122.579-49.799 132.157-114.919h-264.31c9.574 65.12 65.122 114.919 132.153 114.919v0zM855.723 140.651c0-21.068-17.241-38.308-38.31-38.308h-612.891c-21.069 0-38.305 17.241-38.305 38.308v497.973h172.377v-82.358c-11.494-5.743-19.152-19.152-19.152-32.559 0-21.068 17.237-38.305 38.305-38.305s38.305 17.238 38.305 38.305c0 13.406-7.664 26.816-19.153 32.559v82.358h268.141v-82.358c-11.494-5.743-19.153-19.152-19.153-32.559 0-21.068 17.238-38.305 38.305-38.305 21.069 0 38.305 17.238 38.305 38.305 0 13.406-7.663 26.816-19.152 32.559v82.358h172.377v-497.973z" />
<glyph unicode="&#xe946;" glyph-name="speaker" d="M819.13 574.15c-67.622 157.51-176.4 277.332-231.428 254.982-93.45-38.073 55.671-220.67-403.302-407.366-39.66-16.194-49.692-80.68-33.087-119.307 16.565-38.545 70.781-76.96 110.441-60.85 6.873 2.821 32.061 10.937 32.061 10.937 28.304-38.073 57.933-15.51 68.479-39.656 12.635-29.057 40.087-92.213 49.434-113.667 9.351-21.451 30.526-41.32 45.894-35.466 15.326 5.855 67.538 25.726 87.518 33.288 19.977 7.606 24.715 25.468 18.611 39.484-6.575 15.169-33.553 19.614-41.281 37.307-7.683 17.604-32.829 74.266-40.045 92.128-9.819 24.274 11.059 44.056 41.412 47.18 208.927 21.875 247.993-107.346 319.115-78.374 54.944 22.434 43.76 181.998-23.823 339.38v0 0 0zM795.609 318.782c-12.254-4.915-94.476 59.914-146.989 182.34-52.552 122.341-45.933 234.172-33.725 239.17 12.209 4.915 92.426-73.37 144.938-195.712 52.553-122.342 47.984-220.796 35.776-225.798v0 0 0z" />
<glyph unicode="&#xe947;" glyph-name="square-check-fill" d="M832 864h-640c-52.928 0-96-43.072-96-96v-640c0-52.928 43.072-96 96-96h640c52.928 0 96 43.072 96 96v640c0 52.928-43.072 96-96 96zM727.232 521.568l-256.224-259.008c-0.064-0.064-0.192-0.096-0.256-0.192-0.096-0.064-0.096-0.192-0.192-0.256-2.048-1.984-4.576-3.2-6.944-4.544-1.184-0.672-2.144-1.696-3.392-2.176-3.84-1.536-7.904-2.336-11.968-2.336-4.096 0-8.224 0.8-12.096 2.4-1.28 0.544-2.304 1.632-3.52 2.304-2.368 1.344-4.832 2.528-6.88 4.544-0.064 0.064-0.096 0.192-0.16 0.256-0.064 0.096-0.192 0.096-0.256 0.192l-126.016 129.504c-12.32 12.672-12.032 32.928 0.64 45.248 12.672 12.288 32.896 12.064 45.248-0.64l103.264-106.112 233.28 235.808c12.416 12.576 32.704 12.672 45.248 0.256 12.512-12.448 12.64-32.704 0.224-45.248z" />
<glyph unicode="&#xe948;" glyph-name="square" d="M832 32h-640c-52.928 0-96 43.072-96 96v640c0 52.928 43.072 96 96 96h640c52.928 0 96-43.072 96-96v-640c0-52.928-43.072-96-96-96zM192 800c-17.632 0-32-14.368-32-32v-640c0-17.664 14.368-32 32-32h640c17.664 0 32 14.336 32 32v640c0 17.632-14.336 32-32 32h-640z" />
<glyph unicode="&#xe949;" glyph-name="star-line" d="M1024 562.95l-353.78 51.408-158.22 320.582-158.216-320.582-353.784-51.408 256-249.538-60.432-352.352 316.432 166.358 316.432-166.358-60.434 352.352 256.002 249.538zM512 206.502l-223.462-117.48 42.676 248.83-180.786 176.222 249.84 36.304 111.732 226.396 111.736-226.396 249.836-36.304-180.788-176.222 42.678-248.83-223.462 117.48z" />
<glyph unicode="&#xe94a;" glyph-name="star" d="M752 326.816l56.992-358.816-296.992 151.2-296.384-151.2 57.536 358.816-241.152 211.168 329.984 88.832 150.016 301.184 148.832-301.184 331.168-88.832z" />
<glyph unicode="&#xe94b;" glyph-name="statistics" d="M337.449 160.355h-89.729c-30.022 0-54.452 24.403-54.452 54.399v400.856c0 30.022 24.43 54.451 54.452 54.451h89.729c29.997 0 54.452-24.429 54.452-54.451v-400.856c0-29.996-24.455-54.399-54.452-54.399zM252.507 219.606h80.129v391.204h-80.129v-391.204zM588.35 160.355h-89.731c-30.049 0-54.477 24.403-54.477 54.399v298.118c0 30.023 24.427 54.439 54.477 54.439h89.732c30.021 0 54.449-24.415 54.449-54.439v-298.118c-0.001-29.996-24.429-54.399-54.45-54.399zM503.405 219.606h80.131v288.453h-80.131v-288.453zM839.248 160.355h-89.73c-30.023 0-54.477 24.403-54.477 54.399v584.608c0 30.022 24.454 54.439 54.477 54.439h89.73c30.023 0 54.453-24.416 54.453-54.439v-584.608c0-29.996-24.43-54.399-54.453-54.399zM754.306 219.606h80.129v574.943h-80.129v-574.943zM80.437 35.153c-8.794 0-15.922 7.167-15.922 15.948v817.917c0 8.807 7.127 15.975 15.922 15.975h6.089c8.792 0 15.921-7.167 15.921-15.975v-762.167c0-18.586 15.142-33.704 33.717-33.704h806.783c8.77 0 15.948-7.154 15.948-15.934v-6.114c0-8.781-7.178-15.948-15.948-15.948h-862.509z" />
<glyph unicode="&#xe94c;" glyph-name="three" horiz-adv-x="1025" d="M950.4 156.8h-876.8c-41.6 0-73.6 32-73.6 73.6v476.8c0 41.6 32 73.6 73.6 73.6h873.6c41.6 0 73.6-32 73.6-73.6v-476.8c3.2-41.6-28.8-73.6-70.4-73.6zM73.6 752c-25.6 0-44.8-19.2-44.8-44.8v-476.8c0-25.6 19.2-44.8 44.8-44.8h873.6c25.6 0 44.8 19.2 44.8 44.8v476.8c0 25.6-19.2 44.8-44.8 44.8h-873.6zM496 768h28.8v-595.2h-28.8v595.2zM505.6 483.2h518.4v-28.8h-518.4v28.8z" />
<glyph unicode="&#xe94d;" glyph-name="top" d="M950.859 960h-877.718c-10.071 0-18.285-8.196-18.285-18.285 0-10.106 8.214-18.286 18.285-18.286h877.719c10.069 0 18.285 8.179 18.285 18.286 0 10.088-8.215 18.285-18.286 18.285zM872.378 347.514l-360.378 360.379-357.588-357.59c-5.462-3.165-9.159-9.059-9.159-15.819 0-10.107 8.215-18.285 18.286-18.285 4.478 0 8.584 1.623 11.77 4.308l0.511-0.511 317.895 317.896v-683.609c0-10.107 8.214-18.284 18.285-18.284s18.285 8.175 18.285 18.284v683.61l317.894-317.896 0.267 0.268c3.354-3.751 8.213-6.126 13.624-6.126 10.071 0 18.284 8.18 18.284 18.285 0.003 6.264-3.165 11.792-7.975 15.089z" />
<glyph unicode="&#xe94e;" glyph-name="trash" d="M608 192c-17.696 0-32 14.304-32 32v352c0 17.696 14.304 32 32 32s32-14.304 32-32v-352c0-17.696-14.304-32-32-32zM416 192c-17.696 0-32 14.304-32 32v352c0 17.696 14.304 32 32 32s32-14.304 32-32v-352c0-17.696-14.304-32-32-32zM928 736h-160v64c0 52.928-42.72 96-95.264 96h-320.736c-52.928 0-96-43.072-96-96v-64h-160c-17.696 0-32-14.304-32-32s14.304-32 32-32h832c17.696 0 32 14.304 32 32s-14.304 32-32 32zM320 800c0 17.632 14.368 32 32 32h320.736c17.536 0 31.264-14.048 31.264-32v-64h-384v64zM736.128 0h-448.064c-52.928 0-96 43.072-96 96v480.48c0 17.664 14.336 32 32 32s32-14.336 32-32v-480.48c0-17.664 14.368-32 32-32h448.064c17.664 0 32 14.336 32 32v479.168c0 17.664 14.304 32 32 32s32-14.336 32-32v-479.168c0-52.928-43.072-96-96-96z" />
<glyph unicode="&#xe94f;" glyph-name="truck-o" d="M968.9 608.2l-57.5 52.2c-31 28.1-71.1 43.6-112.9 43.6h-158.5v80.5c0 62-50.5 112.5-112.5 112.5h-415c-62 0-112.5-50.5-112.5-112.5v-720.5h128c0-70.6 57.4-128 128-128s128 57.4 128 128h256c0-70.6 57.4-128 128-128s128 57.4 128 128h128v419.8c0 47.3-20.1 92.6-55.1 124.4zM925.9 560.8c21.7-19.7 34.1-47.7 34.1-77v-99.8h-128v250.5c13.3-4.5 25.7-11.8 36.4-21.5l57.5-52.2zM256 0c-35.3 0-64 28.7-64 64s28.7 64 64 64 64-28.7 64-64-28.7-64-64-64zM576 128h-209.2c-22.2 38.2-63.5 64-110.8 64s-88.7-25.8-110.8-64h-81.2v656.5c0 26.7 21.8 48.5 48.5 48.5h415c26.7 0 48.5-21.8 48.5-48.5v-656.5zM768 0c-35.3 0-64 28.7-64 64s28.7 64 64 64 64-28.7 64-64-28.7-64-64-64zM878.8 128c-22.2 38.2-63.5 64-110.8 64s-88.7-25.8-110.8-64h-17.2v512h128v-320h192v-192h-81.2z" />
<glyph unicode="&#xe950;" glyph-name="truck" d="M894.935 457.236c-0.12 3.909-1.311 7.756-3.495 11.011l-118.062 177.161c-3.898 5.78-10.461 9.282-17.444 9.282h-159.597c-11.56 0-20.939-9.388-20.939-20.975v-341.571c0-11.548 9.379-20.951 20.978-20.951h42.933c0-52.948 42.931-95.855 95.87-95.855 52.963 0 95.859 42.907 95.882 95.855h42.935c11.56 0 20.978 9.402 20.978 20.978v164.462c0.012 0.197-0.027 0.405-0.039 0.604v0zM671.294 462.962v127.832h80.859l85.242-127.844-166.101 0.011zM735.191 223.28c-26.429 0-47.942 21.5-47.942 47.93s21.527 47.941 47.942 47.941c26.418 0 47.93-21.527 47.93-47.941 0-26.43-21.501-47.93-47.93-47.93v0zM515.609 718.615h-359.762c-15.379 0-27.829-12.465-27.829-27.83v-391.736c0-15.364 12.45-27.84 27.817-27.84h68.043c0-52.952 42.918-95.859 95.87-95.859s95.87 42.907 95.87 95.859h99.991c15.377 0 27.83 12.476 27.83 27.84v391.736c-0.001 15.365-12.439 27.83-27.831 27.83v0zM319.747 223.28c-26.429 0-47.93 21.5-47.93 47.93s21.511 47.941 47.93 47.941c26.418 0 47.941-21.527 47.941-47.941 0-26.43-21.511-47.93-47.941-47.93v0z" />
<glyph unicode="&#xe951;" glyph-name="tv-solid" d="M525.451 465.009c-27.249 15.558-50.772 29.225-69.922 40.591l-16.778 9.965v-279.396l16.854 10.16c4.373 2.625 9.194 5.57 14.377 8.743l0.973 0.594c15.997 9.763 35.888 21.923 57.122 33.981 43.417 24.028 101.328 56.914 132.833 76.188l17.223 10.53-17.565 9.916c-30.713 17.29-89.056 50.501-135.106 78.738zM837.193 752.316h-182.522l50.702 90.814c7.458 13.695 3.438 31.337-9.375 41.124-13.667 7.771-30.019 2.531-38.964-12.51l-66.571-119.429h-143.328l-66.73 119.715c-8.949 14.836-25.244 20.025-38.761 12.259-13.004-10.034-16.937-27.34-9.36-41.258l50.644-90.703h-169.451c-71.337 0-131.626-62.941-131.626-137.444v-477.514c0-74.496 60.27-137.441 131.626-137.441h623.724c73.801 0 131.626 60.377 131.626 137.441v477.514c0 74.496-60.27 137.444-131.626 137.444zM715.233 335.090c-4.903-2.566-19.381-11.183-43.364-25.474l-1.53-0.914c-29.013-17.271-68.747-40.944-116.362-68.747-26.463-14.522-50.831-29.135-68.981-40.017-12.523-7.511-25.479-15.28-28.087-16.209l-2.422-0.855-1.825-1.871c-4.85-4.956-11.833-7.476-20.74-7.476-27.647 0-48.496 21.766-48.496 50.629v301.117c0 29.45 21.748 53.423 48.496 53.423 8.454 0 17.219-2.336 25.982-6.911 2.384-1.278 13.977-8.045 30.025-17.411l0.622-0.37c16.895-9.863 39.052-22.785 62.608-36.413 83.366-47.51 149.691-86.181 163.264-94.719l0.274-0.172c13.81-8.268 22.822-25.49 22.955-43.811 0.001-18.517-8.879-35.766-22.393-43.811z" />
<glyph unicode="&#xe952;" glyph-name="tv" d="M951.707 879.147h-889.786c-16.386 0-29.667-13.292-29.667-29.656v-593.202c0-16.376 13.281-29.668 29.667-29.668h415.244v-118.626h-118.643c-16.397 0-29.657-13.281-29.657-29.658 0-16.387 13.26-29.657 29.657-29.657h296.585c16.386 0 29.668 13.27 29.668 29.657 0 16.377-13.282 29.658-29.668 29.658h-118.628v118.626h415.228c16.376 0 29.658 13.292 29.658 29.668v593.202c0 16.365-13.282 29.656-29.658 29.656zM922.050 285.956h-830.482v533.878h830.482v-533.878z" />
<glyph unicode="&#xe953;" glyph-name="up" d="M888.508 612.188l-173.652 187.98c-4.406 4.763-10.601 7.472-17.079 7.472h-283.927c-39.412 0-71.47-32.057-71.47-71.466v-78.984c14.69-4.238 24.060-13.34 27.059-16.672l0.832-0.924 0.756-0.982c6.057-7.897 11.992-15.642 17.868-23.283v120.845c0 13.756 11.19 24.95 24.954 24.95h272.93v-161.565c0-6.073 4.923-10.987 10.991-10.987h149.215l1.181-1.269v-427.71c0-13.756-11.191-24.954-24.954-24.954h-409.363c-13.764 0-24.954 11.198-24.954 24.954v50.136c-7.981-3.528-17.033-5.793-27.315-5.793h-19.205v-44.343c0-39.408 32.058-71.47 71.474-71.47h409.363c39.417 0 71.473 32.062 71.473 71.47v436.808c0.001 5.85-2.207 11.488-6.178 15.786v0zM708.77 610.545v127.659l117.931-127.658-117.931-0.001zM361.581 234.95c3.091 0 5.83 0.411 8.435 0.987 0.714 0.161 1.377 0.353 2.074 0.551 2 0.575 3.845 1.272 5.558 2.121 0.395 0.188 0.82 0.348 1.181 0.554 8.342 4.532 12.974 11.778 14.625 16.823 0.534 1.605 0.685 3.087 0.774 5.011l-1.226 102.377h113.569c2.953 0 5.842 0.848 8.33 2.44 4.465 2.831 9.22 8.888 9.22 17.37 0 7.296-3.574 14.579-10.597 21.607-8.12 8.414-97.945 124.815-160.876 206.84-2.074 2.71-4.209 5.482-6.225 8.107-1.269 1.408-8.162 8.434-18.985 8.707-5.255 0.139-13.13-1.319-20.793-8.981-0.441-0.424-0.848-0.894-1.227-1.36l-171.972-218.325c-4.226-4.511-6.376-9.446-6.376-14.689 0-7.556 4.814-16.612 18.322-19.305 4.469-0.894 8.917-0.894 8.917-0.894h101.457v-99.928c0-13.202 5.586-20.502 10.265-24.302 7.754-6.284 16.659-6.208 20.881-5.709l74.671-0.001zM286.775 265.965v114.432c0 8.569-6.95 15.504-15.504 15.504h-101.393l156.663 198.881c28.92-37.732 123.697-161.22 155.348-200.397h-104.573c-4.151 0-8.12-1.664-11.039-4.6-2.864-2.911-4.469-6.83-4.469-10.903v-0.181l1.349-113.252c-0.5 0.165-1.122 0.513-1.575 0.513l-74.806 0.004z" />
<glyph unicode="&#xe954;" glyph-name="upload-thin" d="M940.561 287.647c-10.766 0-19.494-8.728-19.494-19.494v-159.657c0-36.946-30.059-67.005-67.005-67.005h-684.126c-36.946 0-67.005 30.059-67.005 67.005v159.657c0 10.766-8.728 19.494-19.494 19.494s-19.494-8.728-19.494-19.494v-159.657c0-58.445 47.548-105.993 105.993-105.993h684.126c58.445 0 105.993 47.548 105.993 105.993v159.657c0 10.766-8.728 19.494-19.494 19.494zM135.316 476.831c4.989 0 9.978 1.903 13.784 5.71l342.408 342.408v-617.097c0-10.766 8.728-19.494 19.494-19.494s19.494 8.728 19.494 19.494v619.088l344.401-344.401c3.807-3.807 8.795-5.71 13.784-5.71s9.978 1.903 13.784 5.71c7.612 7.612 7.612 19.955 0 27.569l-371.554 371.556c-0.95 2.223-2.318 4.309-4.131 6.123-4.060 4.060-9.465 5.932-14.781 5.662-0.317 0.016-0.633 0.044-0.951 0.045-0.015 0-0.031 0.002-0.045 0.002s-0.030-0.002-0.045-0.002c-0.626-0.001-1.253-0.034-1.877-0.095-0.295-0.029-0.581-0.084-0.872-0.126-0.339-0.048-0.677-0.088-1.014-0.155-0.331-0.064-0.65-0.156-0.973-0.237-0.293-0.074-0.586-0.138-0.876-0.225-0.317-0.096-0.623-0.215-0.933-0.326-0.291-0.104-0.582-0.2-0.869-0.318-0.289-0.12-0.566-0.26-0.847-0.393-0.296-0.139-0.594-0.27-0.882-0.425-0.269-0.144-0.525-0.309-0.787-0.466-0.284-0.17-0.572-0.331-0.849-0.516-0.289-0.193-0.561-0.408-0.838-0.617-0.231-0.173-0.469-0.334-0.693-0.518-0.496-0.407-0.975-0.837-1.429-1.291v0c0 0-0.001 0-0.001-0.001-0.453-0.453-0.883-0.931-1.29-1.428-0.185-0.225-0.345-0.463-0.519-0.694-0.208-0.277-0.423-0.55-0.616-0.838-0.185-0.277-0.347-0.566-0.517-0.85-0.157-0.261-0.32-0.516-0.464-0.785-0.156-0.292-0.288-0.59-0.428-0.887-0.104-0.222-0.222-0.436-0.319-0.662l-371.535-371.533c-7.612-7.613-7.612-19.955 0-27.569 3.807-3.807 8.796-5.71 13.785-5.71z" />
<glyph unicode="&#xe955;" glyph-name="upload" d="M823.005 308.419v-149.134h-623.93v149.134h-71.615v-221.181h767.289v221.181h-71.744zM400.495 403.394h224.647v91.577h196.269l-310.302 310.302-310.254-310.302h199.639v-91.577zM400.495 364.454h224.647v-55.286h-224.647v55.286zM400.495 269.434h224.647v-27.652h-224.647v27.652z" />
<glyph unicode="&#xe956;" glyph-name="user" d="M902.935 133.298c0 33.809-12.938 63.726-38.198 82.539-70.555 48.077-126.463 78.309-225.608 121.406-25.043 9.23-42.040 33.169-42.040 61.296 0 19.845 8.562 38.576 23.404 49.556 88.728 65.638 101.487 258.97 101.487 258.97 0 113.936-92.724 206.299-207.238 206.299-114.515 0-207.98-92.509-207.98-206.445 0 0 5.207-148.685 62.567-216.224h0.005c11.472-16.373 23.486-30.706 38.35-42.748 14.030-11.992 23.314-29.637 23.314-49.482 0-28.128-17.696-52.029-42.739-61.259-82.847-34.523-153.234-71.591-227.264-121.388-25.261-18.812-41.641-48.72-41.641-82.53 0-48.060 33.105-88.32 77.815-99.773 0 0 115.571-48.497 310.499-48.497 193.545 0 310.501 48.427 310.501 48.475v0.026c44 11.454 84.767 51.719 84.767 99.778z" />
<glyph unicode="&#xe957;" glyph-name="users" d="M401.248-0.288c-226.592 0-336.704 53.056-336.704 162.24 0 76.8 114.4 127.072 230.048 144.64v6.496c-86.336 66.112-97.856 184.032-97.856 281.024 0 132.192 77.792 211.104 208.128 211.104h6.816c130.336 0 208.16-78.912 208.16-211.104 0-96.992-11.52-214.912-97.888-281.024v-6.496c115.616-17.568 230.016-67.808 230.016-144.64 0.032-74.016-60.8-162.24-350.72-162.24zM404.864 741.216c-95.648 0-144.128-49.472-144.128-147.104 0-91.264 9.856-190.848 83.040-237.408 9.216-5.888 14.816-16.064 14.816-27.008v-51.264c0-16.384-12.352-30.080-28.64-31.808-121.088-12.768-201.408-59.424-201.408-84.672 0-65.184 91.744-98.24 272.704-98.24 182.208 0 286.752 35.808 286.752 98.24 0 25.248-80.32 71.904-201.376 84.672-16.288 1.728-28.64 15.424-28.64 31.808v51.264c0 10.944 5.6 21.12 14.816 27.008 73.184 46.592 83.072 146.144 83.072 237.408 0 97.6-48.512 147.104-144.16 147.104h-6.848zM899.232 196.16c-17.696 0-32 14.304-32 32 0 24.48-91.2 83.904-196.96 95.104-16.32 1.728-28.672 15.424-28.672 31.808v66.56c0 10.944 5.6 21.12 14.816 27.008 82.784 52.672 91.712 169.792 91.712 217.696 0 110.464-74.688 133.664-137.344 133.664-17.696 0-32 14.336-32 32s14.304 32 32 32c124.192 0 201.344-75.744 201.344-197.696 0-55.712-10.752-188.672-106.528-261.376v-22.208c102.24-18.656 225.632-79.968 225.632-154.56 0-17.696-14.336-32-32-32z" />
<glyph unicode="&#xe958;" glyph-name="video" d="M928 0h-832c-52.928 0-96 43.072-96 96v704c0 52.928 43.072 96 96 96h832c52.928 0 96-43.072 96-96v-704c0-52.928-43.072-96-96-96zM96 832c-17.664 0-32-14.336-32-32v-704c0-17.6 14.336-32 32-32h832c17.6 0 32 14.4 32 32v704c0 17.664-14.4 32-32 32h-832zM64 639.936h895.872v-64h-895.872v64zM192 831.936h64v-192h-64v192zM384 831.936h64v-192h-64v192zM576 831.936h64v-192h-64v192zM768 831.936h64v-192h-64v192zM438.208 440.64c-37.888 18.944-54.208-0.192-54.208-42.624v-153.728c0-42.368 16.32-61.504 54.208-42.496l162.88 85.12c37.888 19.008 41.472 49.92 3.712 68.672l-166.592 85.056z" />
<glyph unicode="&#xe959;" glyph-name="vr" d="M46.742 870.796v0 0zM834.464 711.902h-646.412c-66.716 0-121.573-54.855-121.573-121.573v-283.175c0-66.716 54.856-121.572 121.573-121.572h243.146c7.414 0 14.826 4.447 17.791 11.861l63.751 124.537 62.269-124.537c2.966-7.414 10.379-11.861 17.791-11.861h243.146c66.716 0 121.573 54.855 121.573 121.572v283.175c-1.482 66.716-56.338 121.573-123.055 121.573v0zM309.626 367.941c-44.478 0-81.543 35.582-81.543 81.542s35.582 81.543 81.543 81.543c45.96 0 81.542-35.582 81.542-81.543s-37.064-81.542-81.542-81.542v0zM712.891 367.941c-44.478 0-81.542 35.582-81.542 81.542s35.582 81.543 81.542 81.543c45.961 0 81.543-35.582 81.543-81.543s-37.065-81.542-81.543-81.542v0z" />
<glyph unicode="&#xe95a;" glyph-name="waike" d="M528.232 243.173c-14.207 0-27.5-4.343-38.99-11.882 0.36 18.915 9.311 508.941-45.41 599.575-19.102 3.85-19.102-2.491-19.102-2.491s-46.217-83.52-41.434-478.745c-1.504-16.584-0.792-110.588-0.712-120.617-12.129 8.751-26.488 13.854-41.893 13.854-43.359 0-78.506-40.175-78.506-89.728 0-49.566 35.147-89.741 78.506-89.741 43.351 0 78.499 40.175 78.499 89.741 0 5.7-0.48 11.256-1.372 16.69l0.152-0.266-4.408 307.548c0 0 20.593 97.213 37.398-1.586-2.331-23.911 0-305.96 0-305.96l0.079 0.146c-0.839-5.288-1.299-10.722-1.299-16.277 0-49.58 35.133-89.715 78.492-89.715 43.351 0 78.499 40.135 78.499 89.715 0.001 49.551-35.146 89.739-78.498 89.739zM340.69 108.767c-24.21 0-43.846 21.5-43.846 48.034 0 26.575 19.635 48.074 43.846 48.074 24.231 0 43.851-21.499 43.851-48.074 0.001-26.534-19.62-48.034-43.851-48.034zM434.461 565.346c-9.983 0-18.096 9.151-18.096 20.393 0 11.256 8.113 20.393 18.096 20.393 9.991 0 18.096-9.138 18.096-20.393 0.001-11.242-8.106-20.393-18.096-20.393zM529.464 102.999c-24.229 0-43.858 22.459-43.858 50.139 0 27.667 19.628 50.098 43.858 50.098 24.21 0 43.838-22.432 43.838-50.098 0-27.68-19.628-50.139-43.838-50.139zM742.921 823.846c0 0-104.993 0-53.043-255.224 5.847 2.638 53.043 30.025 53.043 30.025v225.199zM739.844 561.295l-43.072-31.33-6.986-411.688c0 0 5.395-37.804 34.566-47.541 11.882 0 31.323 6.874 36.733 38.029-0.002 28.947-21.241 452.53-21.241 452.53z" />
<glyph unicode="&#xe95b;" glyph-name="wait" d="M855.656 103.498h-49.153v71.789c0 110.598-56.504 209.738-144.208 263.541 87.697 53.842 144.208 152.986 144.208 263.556v90.126h49.61c17.957 0 32.535 15.231 32.535 34.002s-14.578 34.005-32.535 34.005h-687.768c-17.968 0-32.539-15.234-32.539-33.998 0-18.779 14.571-34.010 32.539-34.010h52.565v-90.126c0-110.562 56.504-209.699 144.201-263.541-87.697-53.825-144.201-152.962-144.201-263.556v-71.789h-53.022c-17.957 0-32.535-15.238-32.535-34.002 0-18.775 14.574-34.013 32.535-34.013h687.767c17.964 0 32.542 15.238 32.542 34.005 0.001 18.772-14.577 34.010-32.541 34.010v0zM741.434 103.498h-455.458v71.789c0 108.721 70.196 203.199 170.89 230.267 4.151 0.911 8.071 2.673 11.543 5.13 0.036 0.026 0.079 0.054 0.115 0.079 0.388 0.276 0.772 0.567 1.148 0.861 0.043 0.033 0.090 0.064 0.129 0.097 0.825 0.649 1.618 1.337 2.382 2.070 0.014 0.018 0.026 0.029 0.043 0.043 0.352 0.338 0.696 0.686 1.029 1.037 0.061 0.069 0.122 0.133 0.183 0.197 0.294 0.315 0.581 0.631 0.865 0.961 0.064 0.069 0.126 0.143 0.19 0.215 0.283 0.334 0.556 0.674 0.829 1.019 0.050 0.061 0.097 0.119 0.143 0.179 0.301 0.388 0.591 0.782 0.879 1.18 0.010 0.021 0.026 0.040 0.036 0.057 0.603 0.846 1.166 1.737 1.689 2.647 0.072 0.126 0.136 0.248 0.212 0.377 0.165 0.301 0.33 0.596 0.484 0.901 0.133 0.251 0.258 0.506 0.381 0.76 0.083 0.169 0.165 0.337 0.244 0.51 0.165 0.337 0.315 0.686 0.467 1.029 0.029 0.069 0.057 0.136 0.086 0.205 2.834 6.69 3.634 14.377 1.79 22.029-1.729 7.167-5.509 13.201-10.506 17.613-0.115 0.104-0.229 0.205-0.341 0.305-0.19 0.162-0.388 0.322-0.581 0.484-0.255 0.205-0.51 0.416-0.775 0.62-0.047 0.036-0.097 0.072-0.143 0.107-3.293 2.529-7.099 4.444-11.303 5.557-101.314 26.623-172.106 121.431-172.106 230.561v90.126h455.458v-90.126c0-109.13-70.784-203.938-172.134-230.601-15.908-4.158-26.104-19.905-24.417-36.485 0.007-0.057 0.018-0.112 0.021-0.169 0.050-0.488 0.107-0.968 0.179-1.456 0.018-0.112 0.040-0.222 0.057-0.338 0.069-0.434 0.14-0.865 0.222-1.302 0.026-0.112 0.054-0.226 0.079-0.341 0.079-0.384 0.15-0.772 0.244-1.155 0.14-0.574 0.298-1.13 0.459-1.686 0.018-0.061 0.040-0.126 0.057-0.183 0.136-0.452 0.276-0.901 0.431-1.338 0.026-0.076 0.050-0.14 0.076-0.212 0.155-0.445 0.319-0.882 0.491-1.32 0.018-0.050 0.043-0.1 0.064-0.15 0.186-0.47 0.384-0.929 0.588-1.385 0.007-0.018 0.014-0.033 0.021-0.047 0.901-1.987 1.973-3.846 3.193-5.574 0.007-0.007 0.010-0.014 0.014-0.021 0.279-0.391 0.563-0.772 0.853-1.148 0.093-0.122 0.19-0.24 0.287-0.362 0.197-0.251 0.402-0.498 0.606-0.739 0.155-0.186 0.308-0.366 0.467-0.545 0.14-0.162 0.279-0.312 0.424-0.47 0.215-0.236 0.427-0.47 0.649-0.696 0.050-0.050 0.097-0.097 0.147-0.15 3.006-3.078 6.615-5.574 10.701-7.268 0.155-0.064 0.308-0.129 0.463-0.186 0.262-0.107 0.52-0.208 0.789-0.305 0.301-0.112 0.61-0.215 0.911-0.315 0.147-0.047 0.287-0.1 0.438-0.147 0.513-0.169 1.034-0.315 1.561-0.452 101.289-26.599 172.060-121.402 172.060-230.551v-71.787h-0.001z" />
<glyph unicode="&#xe95c;" glyph-name="wechat" d="M636.975 732.356c10.647 0 21.178-0.77 31.622-1.985-28.422 134.874-169.978 235.081-331.578 235.081-180.655 0-328.64-125.422-328.64-284.681 0-91.911 49.222-167.407 131.52-225.956l-32.873-100.711 114.88 58.696c41.105-8.296 74.095-16.83 115.113-16.83 10.327 0 20.538 0.533 30.691 1.333-6.429 22.4-10.153 45.837-10.153 70.133 0 146.252 123.287 264.919 279.418 264.919v0zM460.247 823.111c24.756 0 41.135-16.563 41.135-41.748 0-25.096-16.378-41.896-41.135-41.896-24.611 0-49.338 16.8-49.338 41.896 0 25.185 24.727 41.748 49.338 41.748v0zM230.255 739.467c-24.64 0-49.484 16.8-49.484 41.896 0 25.185 24.844 41.748 49.484 41.748s41.018-16.563 41.018-41.748c0-25.096-16.378-41.896-41.018-41.896v0zM936.902 471.467c0 133.837-131.462 242.904-279.156 242.904-156.364 0-279.505-109.067-279.505-242.904 0-134.044 123.142-242.904 279.505-242.904 32.727 0 65.745 8.415 98.618 16.8l90.153-50.282-24.727 83.644c65.978 50.43 115.113 117.244 115.113 192.741v0zM567.127 513.363c-16.349 0-32.873 16.563-32.873 33.481 0 16.681 16.524 33.481 32.873 33.481 24.873 0 41.135-16.8 41.135-33.481 0-16.919-16.262-33.481-41.135-33.481v0zM747.898 513.363c-16.262 0-32.64 16.563-32.64 33.481 0 16.681 16.378 33.481 32.64 33.481 24.64 0 41.135-16.8 41.135-33.481 0-16.919-16.495-33.481-41.135-33.481v0z" />
</font>
</defs>
</svg>
